<?xml version="1.0" encoding="UTF-8"?>
<svg width="1080px" height="1080px" viewBox="0 0 1080 1080" version="1.1" xmlns="http://www.w3.org/2000/svg" xmlns:xlink="http://www.w3.org/1999/xlink">
    <!-- Generator: Sketch 63.1 (92452) - https://sketch.com -->
    <title>Festival/ 10</title>
    <desc>Created with Sketch.</desc>
    <defs>
        <path d="M20.6679915,210.049818 C32.2542115,160.729631 85.8404795,92.2293704 191.564738,64.8292663 C297.288996,37.4291622 385.865683,54.5666266 433.427082,110.039438 C443.156061,121.386745 444.604339,146.503507 437.771915,185.389724 C357.653187,163.032294 292.480699,156.638936 242.254451,166.209651 C192.028202,175.780367 122.510882,206.37715 33.7024891,258 C22.550552,236.514604 18.2057194,220.53121 20.6679915,210.049818 Z" id="path-1"></path>
        <path d="M134.11463,17.8178592 C141.174144,6.22881336 198.48557,9.46455278 208.724566,15.1143197 C218.963563,20.7640867 273.810664,63.1823992 263.780763,151.56193 C253.750861,239.941461 174.750093,408.51092 155.67593,425.599866 C136.601766,442.688812 29.8494608,416.559382 18.8425317,385.968898 C7.83560249,355.378414 107.883118,244.040127 131.83785,167.534542 C155.792581,91.0289561 127.055117,29.4069051 134.11463,17.8178592 Z" id="path-3"></path>
        <path d="M478.835983,25.5045303 C493.795434,28.3404942 505.015022,76.5518803 501.275159,86.4777539 C497.535297,96.4036275 463.735816,152.719186 361.030309,167.302725 C258.324801,181.886263 46.8818437,160.212815 22.5727363,148.868959 C-1.73637108,137.525104 0.133560258,42.5203136 31.922393,25.5045303 C63.7112258,8.48874696 215.798975,62.3720609 308.672231,62.3720609 C401.545488,62.3720609 463.876532,22.6685664 478.835983,25.5045303 Z" id="path-5"></path>
    </defs>
    <g id="Festival/-10" stroke="none" stroke-width="1" fill="none" fill-rule="evenodd">
        <g id="Group" transform="translate(225.000000, 21.000000)">
            <path d="M49.3195463,380 C135.72181,327.126799 201.909253,296.554947 247.881878,288.284444 C293.854502,280.013942 359.558825,286.858386 444.994849,308.817778 C450.049685,265.56046 436.039204,228.144164 402.963406,196.568889 C369.887608,164.993614 291.139044,123.470651 166.717713,72 C97.7816442,161.043008 56.2333219,224.011896 42.0727459,260.906667 C27.9121699,297.801437 30.3277701,337.499215 49.3195463,380 Z" id="Path" stroke="#000000" stroke-width="12" fill="#FFFFFF" stroke-linecap="round" stroke-linejoin="round" transform="translate(239.500000, 226.000000) rotate(-15.000000) translate(-239.500000, -226.000000) "></path>
            <g id="Path-+-Path-+-Path-+-Path-+-Path-Mask" transform="translate(28.000000, 127.000000)">
                <mask id="mask-2" fill="white">
                    <use xlink:href="#path-1"></use>
                </mask>
                <use id="Mask" fill="#FFFFFF" transform="translate(231.000000, 155.000000) rotate(-15.000000) translate(-231.000000, -155.000000) " xlink:href="#path-1"></use>
                <polygon id="Path" stroke="#000000" fill="#000000" stroke-linecap="round" stroke-linejoin="round" mask="url(#mask-2)" points="20 180.05618 109.316456 309 146 283.550562 61.4683544 158"></polygon>
                <polygon id="Path" stroke="#000000" fill="#000000" stroke-linecap="round" stroke-linejoin="round" mask="url(#mask-2)" points="76 129.05618 165.316456 258 202 232.550562 117.468354 107"></polygon>
                <polygon id="Path" stroke="#000000" fill="#000000" stroke-linecap="round" stroke-linejoin="round" mask="url(#mask-2)" points="142 79.2022472 230.607595 209 267 183.382022 183.139241 57"></polygon>
                <polygon id="Path" stroke="#000000" fill="#000000" stroke-linecap="round" stroke-linejoin="round" mask="url(#mask-2)" points="214 41.2022472 303.316456 171 340 145.382022 255.468354 19"></polygon>
                <polygon id="Path" stroke="#000000" fill="#000000" stroke-linecap="round" stroke-linejoin="round" mask="url(#mask-2)" points="297 29.0561798 385.607595 158 422 132.550562 338.139241 7"></polygon>
            </g>
            <path d="M43.6679915,338.049818 C55.2542115,288.729631 108.840479,220.22937 214.564738,192.829266 C320.288996,165.429162 408.865683,182.566627 456.427082,238.039438 C466.156061,249.386745 467.604339,274.503507 460.771915,313.389724 C380.653187,291.032294 315.480699,284.638936 265.254451,294.209651 C215.028202,303.780367 145.510882,334.37715 56.7024891,386 C45.550552,364.514604 41.2057194,348.53121 43.6679915,338.049818 Z" id="Path" stroke="#000000" stroke-width="12" stroke-linecap="round" stroke-linejoin="round" transform="translate(254.000000, 283.000000) rotate(-15.000000) translate(-254.000000, -283.000000) "></path>
            <path d="M100.69023,43.3446037 C104.559796,28.7582962 111.815232,21.0093204 122.456539,20.0976762 C133.097846,19.186032 141.320674,24.6558972 147.125023,36.507272 C166.472854,22.8326088 182.434814,21.4651425 195.010904,32.4048731 C207.586993,43.3446037 209.521777,59.7541995 200.815253,81.6336607 C212.934857,99.1381255 217.288118,111.445322 213.875038,118.555251 C210.461958,125.66518 196.918477,132.502512 173.244594,139.067246 C176.146769,150.918621 172.277203,157.755953 161.635896,159.579241 C150.994589,161.40253 136.967412,157.300131 119.554365,147.272044 C106.978275,158.211775 95.8532721,160.490885 86.1793568,154.109376 C76.5054416,147.727866 74.0869628,135.876492 78.9239204,118.555251 C57.6413068,114.908675 47,107.159699 47,95.3083239 C47,83.4569491 57.6413068,77.0754396 78.9239204,76.1637954 C63.445656,63.4007764 58.6086983,53.37269 64.4130475,46.0795363 C70.2173966,38.7863826 82.3097907,37.8747384 100.69023,43.3446037 Z" id="Path" stroke="#000000" stroke-width="12" fill="#FFFFFF" stroke-linecap="round" stroke-linejoin="round" transform="translate(131.000000, 90.000000) rotate(-15.000000) translate(-131.000000, -90.000000) "></path>
        </g>
        <g id="Group" transform="translate(617.000000, 578.000000)" stroke="#000000" stroke-linecap="round" stroke-linejoin="round" stroke-width="12">
            <path d="M34.5263158,0 C11.5087719,11.1703297 0,29.460928 0,54.8717949 C0,80.2826618 11.5087719,97.6587302 34.5263158,107 C175.508772,88.7094017 246,73.1623932 246,60.3589744 C246,47.5555556 175.508772,27.4358974 34.5263158,0 Z" id="Path" fill="#FFFFFF"></path>
            <path d="M52,5 C45.579382,17.2283605 41.6203901,27.0616939 40.1230243,34.5 C38.6256586,41.9383061 38.6256586,51.7716395 40.1230243,64" id="Path"></path>
            <path d="M89,13 C84.5549568,23.5702778 81.8141162,32.0702778 80.7774784,38.5 C79.7408405,44.9297222 79.7408405,53.4297222 80.7774784,64" id="Path"></path>
            <path d="M126,21 C123.036638,29.912195 121.209411,37.0788616 120.518319,42.5 C119.827227,47.9211384 119.827227,55.087805 120.518319,64" id="Path"></path>
            <path d="M160,29 C158.518319,36.0468518 157.604705,41.7135185 157.259159,46 C156.913614,50.2864815 156.913614,55.9531482 157.259159,63" id="Path"></path>
            <path d="M194,40 C192.518319,44.9742484 191.604705,48.9742484 191.259159,52 C190.913614,55.0257516 190.913614,59.0257516 191.259159,64" id="Path"></path>
        </g>
        <g id="Group" transform="translate(163.544407, 791.000000)">
            <g id="Path-+-Path-+-Path-Mask" transform="translate(1.000000, 43.903617)">
                <mask id="mask-4" fill="white">
                    <use xlink:href="#path-3"></use>
                </mask>
                <use id="Mask" fill="#FFFFFF" transform="translate(141.500000, 220.508004) rotate(5.000000) translate(-141.500000, -220.508004) " xlink:href="#path-3"></use>
                <polygon id="Path" stroke="#000000" fill="#000000" stroke-linecap="round" stroke-linejoin="round" mask="url(#mask-4)" transform="translate(203.680339, 174.852633) rotate(95.000000) translate(-203.680339, -174.852633) " points="191.604067 84.352633 166.180339 255.009776 214.485423 265.352633 241.180339 101.159776"></polygon>
                <polygon id="Path" stroke="#000000" fill="#000000" stroke-linecap="round" stroke-linejoin="round" mask="url(#mask-4)" transform="translate(156.955593, 260.341279) rotate(95.000000) translate(-156.955593, -260.341279) " points="144.879322 169.841279 119.455593 340.498421 167.760678 350.841279 194.455593 186.648421"></polygon>
            </g>
            <path d="M134.570223,61.8178592 C141.629737,50.2288134 198.941163,53.4645528 209.18016,59.1143197 C219.419156,64.7640867 274.266257,107.182399 264.236356,195.56193 C254.206454,283.941461 175.205687,452.51092 156.131523,469.599866 C137.057359,486.688812 30.3050541,460.559382 19.2981249,429.968898 C8.29119575,399.378414 108.338711,288.040127 132.293443,211.534542 C156.248175,135.028956 127.51071,73.4069051 134.570223,61.8178592 Z" id="Path" stroke="#000000" stroke-width="12" stroke-linecap="round" stroke-linejoin="round" transform="translate(141.955593, 264.508004) rotate(5.000000) translate(-141.955593, -264.508004) "></path>
            <g id="Path-+-Path-+-Path-+-Path-+-Path-Mask" transform="translate(110.244495, 2.000000)">
                <mask id="mask-6" fill="white">
                    <use xlink:href="#path-5"></use>
                </mask>
                <use id="Mask" fill="#FFFFFF" transform="translate(254.000000, 97.182234) rotate(5.000000) translate(-254.000000, -97.182234) " xlink:href="#path-5"></use>
                <polygon id="Path" stroke="#000000" fill="#000000" stroke-linecap="round" stroke-linejoin="round" mask="url(#mask-6)" points="72.2110985 8 52.2110985 140 90.2110985 148 111.211099 21"></polygon>
                <polygon id="Path" stroke="#000000" fill="#000000" stroke-linecap="round" stroke-linejoin="round" mask="url(#mask-6)" points="164.211099 32 144.211099 164 182.211099 172 203.211099 45"></polygon>
                <polygon id="Path" stroke="#000000" fill="#000000" stroke-linecap="round" stroke-linejoin="round" mask="url(#mask-6)" points="257.211099 50 237.211099 182 275.211099 190 296.211099 63"></polygon>
                <polygon id="Path" stroke="#000000" fill="#000000" stroke-linecap="round" stroke-linejoin="round" mask="url(#mask-6)" points="349.211099 54 329.211099 186 367.211099 194 388.211099 67"></polygon>
                <polygon id="Path" stroke="#000000" fill="#000000" stroke-linecap="round" stroke-linejoin="round" mask="url(#mask-6)" points="441.211099 27 421.211099 159 459.211099 167 480.211099 40"></polygon>
            </g>
            <path d="M589.291576,25.3222965 C604.251027,28.1582604 615.470615,76.3696465 611.730753,86.2955202 C607.99089,96.2213938 574.19141,152.536953 471.485902,167.120491 C368.780395,181.704029 157.337437,160.030581 133.02833,148.686726 C108.719222,137.34287 110.589154,42.3380799 142.377986,25.3222965 C174.166819,8.3065132 326.254568,62.1898271 419.127825,62.1898271 C512.001081,62.1898271 574.332126,22.4863327 589.291576,25.3222965 Z" id="Path" stroke="#000000" stroke-width="12" stroke-linecap="round" stroke-linejoin="round" transform="translate(364.455593, 97.000000) rotate(5.000000) translate(-364.455593, -97.000000) "></path>
        </g>
    </g>
</svg>