<?xml version="1.0" encoding="UTF-8"?>
<svg width="1080px" height="1080px" viewBox="0 0 1080 1080" version="1.1" xmlns="http://www.w3.org/2000/svg" xmlns:xlink="http://www.w3.org/1999/xlink">
    <!-- Generator: Sketch 63.1 (92452) - https://sketch.com -->
    <title>Festival/ 2</title>
    <desc>Created with Sketch.</desc>
    <g id="Festival/-2" stroke="none" stroke-width="1" fill="none" fill-rule="evenodd" stroke-linecap="round" stroke-linejoin="round">
        <path d="M664,761 C666,769.888889 667,777.888889 667,785 C667,792.111111 666,802.444444 664,816 L643,766 L664,761 Z" id="Path" stroke="#000000" stroke-width="12"></path>
        <path d="M573,761 C575,769.888889 576,777.888889 576,785 C576,792.111111 575,802.444444 573,816 L552,766 L573,761 Z" id="Path" stroke="#000000" stroke-width="12" transform="translate(564.000000, 788.500000) scale(-1, 1) translate(-564.000000, -788.500000) "></path>
        <path d="M549,759 C576.33038,765.666667 599.663714,769 619,769 C638.336286,769 655.002953,765.666667 669,759" id="Path" stroke="#000000" stroke-width="16"></path>
        <path d="M530,965 C498.192003,958.01506 465.525336,942.681727 432,919 C398.474664,895.318273 352.807997,855.318273 295,799 C302.09541,853.402148 323.762077,893.402148 360,919 C374.106846,928.964836 391.773513,969.29817 413,1040 L530,965 Z" id="Path" stroke="#000000" stroke-width="12" fill="#000000"></path>
        <path d="M817.962737,965 C786.15474,968.01506 753.488073,957.681727 719.962737,934 C686.437401,910.318273 648.104067,858.651606 604.962737,779 C597.39148,846.735481 611.724813,893.402148 647.962737,919 C662.069583,928.964836 680.069583,969.29817 701.962737,1040 L817.962737,965 Z" id="Path" stroke="#000000" stroke-width="12" fill="#000000" transform="translate(710.481368, 909.500000) scale(-1, 1) translate(-710.481368, -909.500000) "></path>
        <path d="M330.685768,112 L375.548782,174.854626 C357.366247,172.60162 344.684968,172.60162 337.504946,174.854626 C330.324925,177.107631 322.668304,183.489423 314.535083,194 C302.00543,186.339285 291.597211,181.161605 283.310426,178.46696 C276.464466,176.240834 266.456008,174.210188 253.28505,172.375021 C251.47419,193.570243 239.387267,204.167625 217.023919,204.167625 C194.896563,204.167625 182.82989,193.792724 180.823899,173.042923 C167.376438,174.895739 157.181115,176.952295 150.238356,179.209898 C141.951571,181.904543 131.543352,187.082223 119.013699,194.742937 C110.880478,184.23236 103.223857,177.850569 96.0438356,175.597563 C88.8638139,173.344557 76.1825354,173.344557 58,175.597563 L58,175.597563 L102.863014,112.742937 C117.081269,124.365577 129.642913,133.035181 140.547945,138.751748 C150.092373,143.755067 163.655128,149.267969 181.236212,155.290452 C182.556617,144.154844 185.72497,131.113081 190.739361,116.167625 C192.899736,127.227734 201.661255,132.757789 217.023919,132.757789 C232.386583,132.757789 241.148102,127.227734 243.308477,116.167625 C248.191563,130.721725 251.324025,143.470526 252.705863,154.414028 C270.095752,148.442821 283.527599,142.974811 293.000837,138.008811 C303.905869,132.292244 316.467513,123.62264 330.685768,112 Z" id="Combined-Shape" stroke="#000000" stroke-width="12" fill="#000000" transform="translate(216.774391, 158.083812) rotate(-15.000000) translate(-216.774391, -158.083812) "></path>
        <path d="M986.70387,441 L1019.92305,486.991189 C1006.45964,485.342649 997.06969,485.342649 991.753185,486.991189 C986.436681,488.63973 980.767274,493.309334 974.744966,501 C965.467284,495.394599 957.760435,491.606053 951.624418,489.634361 C946.558834,488.006633 939.154842,486.521737 929.412443,485.179676 C928.233179,501.195073 919.277882,509.202251 902.546461,509.202251 C886.193846,509.202251 877.269232,501.553541 875.772617,486.256121 C865.901281,487.605371 858.409672,489.102298 853.29863,490.744634 C847.162614,492.716325 839.455764,496.504872 830.178082,502.110273 C824.155774,494.419606 818.486368,489.750003 813.169863,488.101462 C807.853358,486.452921 798.463404,486.452921 785,488.101462 L785,488.101462 L818.219178,442.110273 C828.747199,450.614643 838.048569,456.958256 846.123288,461.14111 C853.156701,464.784548 863.137097,468.79729 876.064475,473.179335 C877.035014,464.936678 879.381865,455.27707 883.103089,444.202251 C884.701175,452.371649 891.182298,456.456349 902.546461,456.456349 C913.910623,456.456349 920.391747,452.371649 921.989832,444.202251 C925.543681,454.778941 927.844011,464.064866 928.890821,472.060024 C941.801843,467.680628 951.771947,463.671375 958.799761,460.030837 C966.874479,455.847983 976.175849,449.504371 986.70387,441 Z" id="Combined-Shape" stroke="#000000" stroke-width="12" fill="#000000" transform="translate(902.461524, 475.101125) rotate(-330.000000) translate(-902.461524, -475.101125) "></path>
    </g>
</svg>