<?xml version="1.0" encoding="UTF-8"?>
<svg width="1080px" height="1080px" viewBox="0 0 1080 1080" version="1.1" xmlns="http://www.w3.org/2000/svg" xmlns:xlink="http://www.w3.org/1999/xlink">
    <!-- Generator: Sketch 63.1 (92452) - https://sketch.com -->
    <title>Festival/ 6</title>
    <desc>Created with Sketch.</desc>
    <g id="Festival/-6" stroke="none" stroke-width="1" fill="none" fill-rule="evenodd" stroke-linecap="round" stroke-linejoin="round">
        <path d="M719.906151,326.861289 C695.655609,269.450665 676.20621,230.143003 661.557955,208.938302 C601.754054,122.366639 545.939206,83.720194 526.385541,68.5769724 C486.278808,37.5165471 376.730368,51.2721509 355.006231,68.5769724 C345.930008,75.8068294 293.08844,114.111232 225.8683,208.938302 C199.173779,246.596111 140.37323,337.980346 49.4666551,483.091007 L86.8804482,508.08686 C112.594224,481.845861 130.397691,464.516343 140.290848,456.098305 C156.595653,442.224627 171.85896,435.443441 177.592437,431.016845 C184.799027,425.452916 189.328025,408.585292 194.863628,389.604428 C196.781488,383.028335 199.97736,373.197598 204.451245,360.112216 L719.906151,326.861289 Z" id="Path" stroke="#000000" stroke-width="12" fill="#FFFFFF" transform="translate(384.686403, 279.086860) rotate(-12.000000) translate(-384.686403, -279.086860) "></path>
        <path d="M262.55706,498 C364.827248,444.976662 446.674211,411.570635 508.097948,397.781919 C569.521686,383.993204 645.431563,378.49601 735.827581,381.290337 C751.942527,361.838726 760,341.118532 760,319.129755 C760,297.140978 753.638837,273.037895 740.916511,246.820507 C608.977187,236.773416 513.983821,239.733444 455.936412,255.70059 C397.889004,271.667736 320.706894,316.068152 224.390082,388.901836 C219.869973,417.421745 219.869973,438.141939 224.390082,451.062418 C228.910192,463.982897 241.632517,479.628758 262.55706,498 Z" id="Path" stroke="#000000" stroke-width="12" fill="#FFFFFF"></path>
        <circle id="Oval" stroke="#000000" stroke-width="12" fill="#FFFFFF" cx="112" cy="568" r="80"></circle>
        <path d="M222,408 C225.333333,371.333333 234,343.333333 248,324 C262,304.666667 273.666667,292.666667 283,288" id="Path" stroke="#000000" stroke-width="12"></path>
    </g>
</svg>