<?xml version="1.0" encoding="UTF-8"?>
<svg width="1080px" height="1080px" viewBox="0 0 1080 1080" version="1.1" xmlns="http://www.w3.org/2000/svg" xmlns:xlink="http://www.w3.org/1999/xlink">
    <!-- Generator: Sketch 63.1 (92452) - https://sketch.com -->
    <title>Festival/ 7</title>
    <desc>Created with Sketch.</desc>
    <g id="Festival/-7" stroke="none" stroke-width="1" fill="none" fill-rule="evenodd" stroke-linecap="round" stroke-linejoin="round">
        <path d="M453,739 C428.333333,746.333333 409.333333,758 396,774 C382.666667,790 374.333333,809.322917 371,831.96875 L387.472727,831.96875 C386.321739,845.451542 386.321739,856.571333 387.472727,865.328125 C388.623716,874.084917 391.618757,885.751583 396.457851,900.328125 L404.694215,889.390625 C417.320937,910.792483 428.302755,926.287275 437.639669,935.875 C446.976584,945.462725 461.20303,955.85335 480.319008,967.046875 L480.319008,955.015625 C498.497555,969.19519 512.724001,978.492065 522.998347,982.90625 C533.272693,987.320435 548.747073,990.783977 569.421488,993.296875 L569.421488,977.4375 C594.94575,993.674222 614.163932,1004.24714 627.076033,1009.15625 C639.988134,1014.06536 657.209622,1017.34661 678.740496,1019 C672.750413,1004.17361 669.755372,993.418403 669.755372,986.734375 C669.755372,980.050347 672.750413,973.487847 678.740496,967.046875 C682.882336,967.054286 686.626137,967.783453 689.971901,969.234375 C693.317664,970.685297 697.560639,973.419672 702.700826,977.4375 C729.712497,958.458183 749.180266,942.416517 761.104132,929.3125 C773.027998,916.208483 780.266015,902.901192 782.818182,889.390625 L791.054545,900.328125 C801.671485,887.839334 808.160741,877.448709 810.522314,869.15625 C812.883887,860.863791 812.883887,848.467958 810.522314,831.96875 L824,831.96875 C818.102895,810.593142 812.112812,794.0046 806.029752,782.203125 C799.946692,770.40165 789.963221,756.000608 776.079339,739 L453,739 Z" id="Path" stroke="#000000" stroke-width="12" fill="#FFFFFF"></path>
        <path d="M646.555947,767.173111 C631.868206,788.307449 603.816485,800.660646 592.400784,804.232701 C565.963417,812.505143 508.863983,801.50062 494.122195,794.943627 C479.380406,788.386634 455.902743,771.99415 453.172782,734.837854 C451.352808,710.06699 463.910628,689.121038 490.846242,672 C490.941641,691.269873 503.135466,703.837444 527.427716,709.702712 C547.563114,714.564325 575.670709,693.310229 617.516423,693.310229 C632.651326,693.310229 642.43496,698.665653 646.867324,709.376502 L647,709.702712 C651.367937,698.77439 661.195796,693.310229 676.483577,693.310229 C718.329291,693.310229 746.436886,714.564325 766.572284,709.702712 C790.864534,703.837444 803.058359,691.269873 803.153758,672 C830.089372,689.121038 842.647192,710.06699 840.827218,734.837854 C838.097257,771.99415 814.619594,788.386634 799.877805,794.943627 C785.136017,801.50062 744.047249,809.644906 711.599216,804.232701 C689.967194,800.624565 661.767456,788.056994 647,766.529989 L646.555947,767.173111 Z" id="Path" stroke="#000000" stroke-width="12" fill="#FFFFFF"></path>
        <g id="Group" transform="translate(55.000000, 62.000000)" stroke="#000000" stroke-width="12">
            <path d="M207.55706,436 C309.827248,382.976662 391.674211,349.570635 453.097948,335.781919 C514.521686,321.993204 590.431563,316.49601 680.827581,319.290337 C696.942527,299.838726 705,279.118532 705,257.129755 C705,235.140978 698.638837,211.037895 685.916511,184.820507 C553.977187,174.773416 458.983821,177.733444 400.936412,193.70059 C342.889004,209.667736 265.706894,254.068152 169.390082,326.901836 C164.869973,355.421745 164.869973,376.141939 169.390082,389.062418 C173.910192,401.982897 186.632517,417.628758 207.55706,436 Z" id="Path" fill="#FFFFFF"></path>
            <path d="M207.057143,299 C208.931819,281.742993 213.169914,264.415516 219.771429,247.017569 C226.372943,229.619621 238.663419,208.911173 256.642857,184.892224 C228.671429,199.261352 202.819048,209.826886 179.085714,216.588829 C155.352381,223.350771 123.990476,223.350771 85,216.588829 C132.626268,185.001066 163.988173,162.17951 179.085714,148.124163 C204.369615,124.585628 228.07909,95.6938964 237.571429,80.9273619 C269.357143,31.4806591 329.114286,6.12337556 371.071429,1.05191886 C413.028571,-4.01953784 434.439952,8.53502852 496.942857,54.3022142 C538.61146,84.8136713 579.297175,125.807946 619,177.285039 C516.922176,173.344575 441.484081,178.838653 392.685714,193.767273 C343.887348,208.695894 282.011157,243.77347 207.057143,299 Z" id="Path" fill="#FFFFFF"></path>
            <path d="M255,186 C265.051586,163.21277 273.973154,144.71277 281.764706,130.5 C289.556257,116.28723 302.301355,97.7872295 320,75" id="Path"></path>
            <path d="M256,186 C282.281973,150.104759 303.88614,124.457031 320.8125,109.056818 C337.73886,93.6566051 356.80136,82.3043324 378,75" id="Path"></path>
            <path d="M91.3655172,308 C141.825299,308 184,268.304888 184,217.770833 C184,213.143326 166.077737,222.854167 144.662069,222.854167 C118.013793,222.854167 93.1904005,221.764759 91.3655172,216.5 C89.7037528,211.705836 109.988663,200.13172 129.434483,187.270833 C147.709304,175.18441 165.26761,161.753988 162.427586,158.041667 C145.729371,136.21469 120.942938,125 91.3655172,125 C40.9057354,125 0,165.965945 0,216.5 C0,267.034055 40.9057354,308 91.3655172,308 Z" id="Oval" fill="#FFFFFF"></path>
        </g>
    </g>
</svg>