<?xml version="1.0" encoding="UTF-8"?>
<svg width="1080px" height="1080px" viewBox="0 0 1080 1080" version="1.1" xmlns="http://www.w3.org/2000/svg" xmlns:xlink="http://www.w3.org/1999/xlink">
    <!-- Generator: Sketch 63.1 (92452) - https://sketch.com -->
    <title>Festival/ 8</title>
    <desc>Created with Sketch.</desc>
    <g id="Festival/-8" stroke="none" stroke-width="1" fill="none" fill-rule="evenodd">
        <g id="Group" transform="translate(230.000000, 40.000000)" fill="#FFFFFF" stroke="#000000" stroke-linecap="round" stroke-linejoin="round" stroke-width="12">
            <path d="M133.206951,359.461866 C191.974724,319.662871 250.742496,299.763374 309.510269,299.763374 C368.278041,299.763374 427.045814,319.662871 485.813586,359.461866 C427.045814,296.748298 368.278041,265.391515 309.510269,265.391515 C250.742496,265.391515 191.974724,296.748298 133.206951,359.461866 Z" id="Path"></path>
            <path d="M385.908373,282.577444 L444.676145,166.79855 C417.90416,121.572419 408.436019,94.4367407 416.271722,85.3915145 C424.107425,76.3462884 441.737757,90.8186502 469.162717,128.8086 C520.747762,38.3563387 553.723012,-4.4577317 568.088468,0.366388907 C582.453923,5.19050951 565.150079,44.9895045 516.176935,119.763374 C587.351237,91.4216653 621.632438,85.090007 619.020537,100.768399 C615.102686,124.285987 489.731438,145.99453 481.895735,166.79855 C474.060032,187.60257 563.191153,168.607595 563.191153,183.984479 C563.191153,194.235736 534.460242,202.074932 476.99842,207.502067 L405.49763,292.527193 L385.908373,282.577444 Z" id="Path"></path>
            <path d="M-1.76771359e-12,282.577444 L58.7677725,166.79855 C31.9957873,121.572419 22.5276461,94.4367407 30.3633491,85.3915145 C38.1990521,76.3462884 55.8293839,90.8186502 83.2543444,128.8086 C134.839389,38.3563387 167.814639,-4.4577317 182.180095,0.366388907 C196.54555,5.19050951 179.241706,44.9895045 130.268562,119.763374 C201.442865,91.4216653 235.724065,85.090007 233.112164,100.768399 C229.194313,124.285987 103.823065,145.99453 95.9873618,166.79855 C88.1516588,187.60257 177.28278,168.607595 177.28278,183.984479 C177.28278,194.235736 148.551869,202.074932 91.0900474,207.502067 L19.5892575,292.527193 L-1.76771359e-12,282.577444 Z" id="Path" transform="translate(116.625425, 146.263596) scale(-1, 1) translate(-116.625425, -146.263596) "></path>
        </g>
        <g id="Group" transform="translate(587.000000, 587.000000)">
            <circle id="Oval" stroke="#000000" stroke-width="12" fill="#FFFFFF" stroke-linecap="round" stroke-linejoin="round" cx="72" cy="72" r="72"></circle>
            <path d="M50,28 C39.0643664,37.4453105 32.0643664,46.4453105 29,55 C25.9356336,63.5546895 25.9356336,74.2213562 29,87" id="Path" stroke="#000000" stroke-width="16" stroke-linecap="round" stroke-linejoin="round"></path>
            <circle id="Oval" fill="#000000" cx="42" cy="108" r="8"></circle>
        </g>
    </g>
</svg>