<?xml version="1.0" encoding="UTF-8"?>
<svg width="1080px" height="1080px" viewBox="0 0 1080 1080" version="1.1" xmlns="http://www.w3.org/2000/svg" xmlns:xlink="http://www.w3.org/1999/xlink">
    <!-- Generator: Sketch 63.1 (92452) - https://sketch.com -->
    <title>Festival/ 9</title>
    <desc>Created with Sketch.</desc>
    <g id="Festival/-9" stroke="none" stroke-width="1" fill="none" fill-rule="evenodd" stroke-linecap="round" stroke-linejoin="round">
        <g id="Group" transform="translate(306.500000, 203.000000) rotate(-30.000000) translate(-306.500000, -203.000000) translate(147.000000, 12.000000)" fill="#FFFFFF" stroke="#000000" stroke-width="12">
            <path d="M0,334 C20.322395,320.698757 33.9890617,309.698757 41,301 C48.0109383,292.301243 52.3442716,280.96791 54,267 C46.4460306,266.030736 40.7793639,265.030736 37,264 C33.2206361,262.969264 27.8873027,260.969264 21,258 C38.2300976,245.582734 51.2300976,234.916067 60,226 C68.7699024,217.083933 75.7699024,207.417266 81,197 C71.4444444,200.333333 64.4444444,202 60,202 C55.5555556,202 49.2222222,200.333333 41,197 C74.9629205,162.426315 98.9629205,135.426315 113,116 C127.037079,96.5736847 140.370413,71.907018 153,42 C173.80998,80.7012042 191.80998,109.701204 207,129 C222.19002,148.298796 244.856687,170.965462 275,197 C270.555556,200.333333 265.555556,202 260,202 C254.444444,202 246.444444,200.333333 236,197 C242,209.666667 250,219.333333 260,226 C270,232.666667 283,241 299,251 C292.486402,255.68934 286.819735,259.022673 282,261 C277.180265,262.977327 269.846932,264.977327 260,267 C271.248089,287.999242 280.248089,302.332575 287,310 C293.751911,317.667425 304.418578,325.667425 319,334 C266.321027,366 213.321027,382 160,382 C106.678973,382 53.3456396,366 0,334 Z" id="Path"></path>
            <polygon id="Path" points="141 28 154 0 166 28 191 28 173 50 183 72 154 63 129 72 137 50 117 28"></polygon>
            <circle id="Oval" cx="140" cy="124" r="14"></circle>
            <circle id="Oval" cx="191" cy="172" r="14"></circle>
            <circle id="Oval" cx="107" cy="222" r="14"></circle>
            <circle id="Oval" cx="160" cy="269" r="14"></circle>
            <circle id="Oval" cx="82" cy="325" r="14"></circle>
            <circle id="Oval" cx="222" cy="334" r="14"></circle>
            <circle id="Oval" cx="236" cy="255" r="14"></circle>
        </g>
    </g>
</svg>