<?xml version="1.0" encoding="UTF-8"?>
<svg width="1080px" height="1080px" viewBox="0 0 1080 1080" version="1.1" xmlns="http://www.w3.org/2000/svg" xmlns:xlink="http://www.w3.org/1999/xlink">
    <!-- Generator: Sketch 63.1 (92452) - https://sketch.com -->
    <title>Glasses/ 11</title>
    <desc>Created with Sketch.</desc>
    <g id="Glasses/-11" stroke="none" stroke-width="1" fill="none" fill-rule="evenodd" stroke-linecap="round" stroke-linejoin="round">
        <g id="Group" transform="translate(289.000000, 483.000000)" fill="#000000" stroke="#000000" stroke-width="4">
            <polygon id="Path" points="192 25 4 58 0 67 192 38"></polygon>
            <path d="M340.412301,48.0760227 C335.068689,89.8057957 323.850769,116.816249 306.758542,129.107383 C281.120201,147.544085 245.501139,147.717457 222.813212,129.107383 C207.687927,116.700668 198.864844,89.6902143 196.343964,48.0760227 L185,42.2603748 L185,23.6503015 L218.275626,17.8346536 C231.384207,5.94488452 248.65224,-5.68434189e-14 270.079727,-5.68434189e-14 C291.507213,-5.68434189e-14 313.312832,9.82198313 335.496583,29.4659494 L366.503417,29.4659494 C388.687168,9.82198313 410.492787,-5.68434189e-14 431.920273,-5.68434189e-14 C453.34776,-5.68434189e-14 470.615793,5.94488452 483.724374,17.8346536 L483.724374,17.8346536 L517,23.6503015 L517,42.2603748 L505.656036,48.0760227 C503.135156,89.6902143 494.312073,116.700668 479.186788,129.107383 C456.498861,147.717457 420.879799,147.544085 395.241458,129.107383 C378.149231,116.816249 366.931311,89.8057957 361.587699,48.0760227 L361.587699,48.0760227 L340.412301,48.0760227 Z M211.774207,36.1448834 C207.709165,44.0340075 195.958058,134.212488 265.802863,131.958453 C331.213076,130.455763 329.128097,47.0796287 324.693506,38.814832 C320.258916,30.5500352 304.55445,12.191491 272.137257,11.0508533 C239.720063,9.91021552 215.839248,28.2557592 211.774207,36.1448834 Z M490.225793,36.1448834 C486.160752,28.2557592 462.279937,9.91021552 429.862743,11.0508533 C397.44555,12.191491 381.741084,30.5500352 377.306494,38.814832 C372.871903,47.0796287 370.786924,130.455763 436.197137,131.958453 C506.041942,134.212488 494.290835,44.0340075 490.225793,36.1448834 Z" id="Combined-Shape"></path>
        </g>
    </g>
</svg>