<?xml version="1.0" encoding="UTF-8"?>
<svg width="1080px" height="1080px" viewBox="0 0 1080 1080" version="1.1" xmlns="http://www.w3.org/2000/svg" xmlns:xlink="http://www.w3.org/1999/xlink">
    <!-- Generator: Sketch 63.1 (92452) - https://sketch.com -->
    <title>Glasses/ 14</title>
    <desc>Created with Sketch.</desc>
    <g id="Glasses/-14" stroke="none" stroke-width="1" fill="none" fill-rule="evenodd" stroke-linecap="round" stroke-linejoin="round">
        <g id="Group" transform="translate(289.000000, 489.000000)" fill="#000000" stroke="#000000" stroke-width="4">
            <path d="M278.528122,2.15757485 C313.265299,7.12548058 328.491531,10.9338618 335.53272,13.0291977 C338.463845,13.9014497 343.431184,14.522438 350.434736,14.8921624 L351.000004,14.9045054 L351.566163,14.9122627 C357.1035,14.9652799 362.070539,14.3375916 366.46728,13.0291977 C373.508469,10.9338618 388.734701,7.12548058 423.471878,2.15757485 C458.209055,-2.81033087 500.962504,1.53658664 507.197382,7.74646879 C513.43226,13.9563509 513.213654,51.3526792 494.711355,71.8452903 C483.07666,84.7315411 419.38069,85.5384141 392.985851,77.9181371 C376.082673,73.0381344 364,35 350.999861,34.6901539 C337.999722,34.3803079 326.088066,72.9888414 309.014149,77.9181371 C282.61931,85.5384141 220.917257,86.724804 209.288645,73.8452903 C190.786346,53.3526792 188.56774,13.9563509 194.802618,7.74646879 C201.037496,1.53658664 243.790945,-2.81033087 278.528122,2.15757485 Z M209.053767,13.7102205 C189.458437,23.4039048 205.272374,57.0466916 213.977008,66.7403759 C222.681642,76.4340602 299.216484,74.1531933 309.904846,69.0212428 C320.593209,63.8892923 335.642023,38.65084 327.625752,24.3954219 C319.60948,10.1400037 237.556067,3.4463194 209.053767,13.7102205 Z M492.946233,13.7102205 C464.443933,3.4463194 382.39052,10.1400037 374.374248,24.3954219 C366.357977,38.65084 381.406791,63.8892923 392.095154,69.0212428 C402.783516,74.1531933 479.318358,76.4340602 488.022992,66.7403759 C496.727626,57.0466916 512.541563,23.4039048 492.946233,13.7102205 Z" id="Combined-Shape"></path>
            <polygon id="Path" points="199 20 4 52 0 61 199 41"></polygon>
        </g>
    </g>
</svg>