<?xml version="1.0" encoding="UTF-8"?>
<svg width="1080px" height="1080px" viewBox="0 0 1080 1080" version="1.1" xmlns="http://www.w3.org/2000/svg" xmlns:xlink="http://www.w3.org/1999/xlink">
    <!-- Generator: Sketch 63.1 (92452) - https://sketch.com -->
    <title>Mouth/ 13</title>
    <desc>Created with Sketch.</desc>
    <g id="Mouth/-13" stroke="none" stroke-width="1" fill="none" fill-rule="evenodd" stroke-linecap="round" stroke-linejoin="round">
        <g id="Group" transform="translate(496.000000, 728.000000)" stroke="#000000">
            <path d="M32,37 C79.9537365,39.9286515 111.642548,39.8851732 127.066434,36.8695652 C142.490319,33.8539572 163.801508,26.8974355 191,16" id="Path" stroke-width="16"></path>
            <path d="M172,28 C172,47.3617021 162.314286,59.8085106 142.942857,65.3404255 C123.571429,70.8723404 95.5904762,62.5744681 59,40.4468085" id="Path" stroke-width="16"></path>
            <path d="M5.814841,53 C2.82375921,45.7952053 3.52993118,38.1396498 7.9333569,30.0333333 C12.3367826,21.9270169 18.6923303,16.5825724 27,14" id="Path" stroke-width="6" transform="translate(15.500000, 33.500000) rotate(-10.000000) translate(-15.500000, -33.500000) "></path>
            <path d="M207.867967,19 C206.43745,15.6747102 206.775184,12.1413768 208.881171,8.4 C210.987157,4.65862317 214.026767,2.19195651 218,1" id="Path" stroke-width="6" transform="translate(212.500000, 10.000000) scale(-1, 1) rotate(-10.000000) translate(-212.500000, -10.000000) "></path>
        </g>
    </g>
</svg>