<?xml version="1.0" encoding="UTF-8"?>
<svg width="1080px" height="1080px" viewBox="0 0 1080 1080" version="1.1" xmlns="http://www.w3.org/2000/svg" xmlns:xlink="http://www.w3.org/1999/xlink">
    <!-- Generator: Sketch 63.1 (92452) - https://sketch.com -->
    <title>Mouth/ 15</title>
    <desc>Created with Sketch.</desc>
    <g id="Mouth/-15" stroke="none" stroke-width="1" fill="none" fill-rule="evenodd" stroke-linecap="round" stroke-linejoin="round">
        <g id="Group" transform="translate(496.000000, 740.000000)" stroke="#000000">
            <path d="M5.814841,41 C2.82375921,33.7952053 3.52993118,26.1396498 7.9333569,18.0333333 C12.3367826,9.92701688 18.6923303,4.58257243 27,2" id="Path" stroke-width="6" transform="translate(15.500000, 21.500000) rotate(-10.000000) translate(-15.500000, -21.500000) "></path>
            <path d="M49,17.625 L119.819672,12 L148.147541,15.125 L169.393443,12 L193,17.625 C181.459016,20.5416667 164.934426,22 143.42623,22 C121.918033,22 90.442623,20.5416667 49,17.625 Z" id="Path" stroke-width="12" transform="translate(121.000000, 17.000000) rotate(-7.000000) translate(-121.000000, -17.000000) "></path>
            <path d="M115,63 C125.225636,63.6902293 132.892303,63.6902293 138,63 C143.107697,62.3097707 147.774364,60.643104 152,58" id="Path" stroke-width="6"></path>
        </g>
    </g>
</svg>