<?xml version="1.0" encoding="UTF-8"?>
<svg width="1080px" height="1080px" viewBox="0 0 1080 1080" version="1.1" xmlns="http://www.w3.org/2000/svg" xmlns:xlink="http://www.w3.org/1999/xlink">
    <!-- Generator: Sketch 63.1 (92452) - https://sketch.com -->
    <title>Mouth/ 16</title>
    <desc>Created with Sketch.</desc>
    <g id="Mouth/-16" stroke="none" stroke-width="1" fill="none" fill-rule="evenodd" stroke-linecap="round" stroke-linejoin="round">
        <g id="Group" transform="translate(524.000000, 743.000000)" stroke="#000000" stroke-width="8">
            <path d="M0,14.4315573 C25.1502223,14.9733177 44.1502223,14.377573 57,12.6443232 C76.2746665,10.0444485 97.3524988,1.18744232 106,0.133684921 C114.647501,-0.920072475 122,4.60177003 124,4.60177003 C126,4.60177003 131,-0.7599321 141,0.133684921 C147.666667,0.729429602 157.666667,5.49538705 171,14.4315573 C155.666667,19.1975147 136,21.5804934 112,21.5804934 C67.3333333,23.3677275 30,20.9847488 0,14.4315573 Z" id="Path"></path>
            <path d="M158,18.561657 C152.108878,28.3373809 146.339472,34.7710023 140.691781,37.8625213 C132.220245,42.4997997 122.287671,39.3191489 115,39.3191489 C107.712329,39.3191489 93.8632913,44.5036349 74.1917808,39.2411544 C61.0774405,35.7328341 44.6801802,28.6098961 25,17.8723404 C52.3290876,20.4420409 75.1030602,21.8206741 93.3219178,22.0082399 C111.540775,22.1958057 133.100136,21.0469448 158,18.561657 Z" id="Path"></path>
        </g>
    </g>
</svg>