<?xml version="1.0" encoding="UTF-8"?>
<svg width="1080px" height="1080px" viewBox="0 0 1080 1080" version="1.1" xmlns="http://www.w3.org/2000/svg" xmlns:xlink="http://www.w3.org/1999/xlink">
    <!-- Generator: Sketch 63.1 (92452) - https://sketch.com -->
    <title>Mouth/ 17</title>
    <desc>Created with Sketch.</desc>
    <g id="Mouth/-17" stroke="none" stroke-width="1" fill="none" fill-rule="evenodd" stroke-linecap="round" stroke-linejoin="round">
        <g id="Group" transform="translate(537.000000, 735.000000)" stroke="#000000" stroke-width="12">
            <path d="M159,13.0434783 C130.128885,15.475987 106.335147,16.2585957 87.6187845,15.3913043 C68.9024222,14.524013 42.0294941,11.3935782 7,6 C22.6758748,54 48.4290976,78 84.2596685,78 C113.651934,78 127.489149,66.4404652 142.20442,44.3478261 C146.211424,38.3319472 151.80995,27.8971646 159,13.0434783 Z" id="Path"></path>
            <path d="M171,10.4444444 C139.141414,15.6296296 110.636364,17.1851852 85.4848485,15.1111111 C60.3333333,13.037037 33.5050505,9.66666667 5,5" id="Path"></path>
            <path d="M0,10 C1.625,6.92307692 3.52083333,4.61538462 5.6875,3.07692308 C7.85416667,1.53846154 10.2916667,0.512820513 13,0" id="Path"></path>
            <path d="M32,53 C44.8994709,45.6666667 63.6878307,42 88.3650794,42 C113.042328,42 129.587302,45.1428571 138,51.4285714" id="Path"></path>
        </g>
    </g>
</svg>