<?xml version="1.0" encoding="UTF-8"?>
<svg width="1080px" height="1080px" viewBox="0 0 1080 1080" version="1.1" xmlns="http://www.w3.org/2000/svg" xmlns:xlink="http://www.w3.org/1999/xlink">
    <!-- Generator: Sketch 63.1 (92452) - https://sketch.com -->
    <title>Mouth/ 18</title>
    <desc>Created with Sketch.</desc>
    <g id="Mouth/-18" stroke="none" stroke-width="1" fill="none" fill-rule="evenodd" stroke-linecap="round" stroke-linejoin="round">
        <g id="Group" transform="translate(557.000000, 761.154962)" stroke="#000000" stroke-width="8">
            <path d="M0,9.1194833 C18.8258974,9.46182858 33.0481196,9.08536999 42.6666667,7.99010754 C57.0944872,6.34721386 72.8720459,0.750359798 79.3450292,0.0844771901 C85.8180126,-0.581405418 91.3216374,2.9079166 92.8187135,2.9079166 C94.3157895,2.9079166 98.0584795,-0.480210692 105.54386,0.0844771901 C110.534113,0.460935778 118.019493,3.47260448 128,9.1194833 C116.522417,12.131152 101.80117,13.6369864 83.8362573,13.6369864 C50.4015595,14.7663621 22.4561404,13.2605278 0,9.1194833 Z" id="Path"></path>
            <path d="M125,9.84503848 C120.692239,13.5832497 117.358906,16.2499164 115,17.8450385 C109.764736,21.3851905 104.977942,24.7394813 94,24.8450385 C85.5042145,24.9267287 67.0273464,19.8291076 56,17.8450385 C47.4317669,16.3034195 30.7651002,13.6367528 6,9.84503848" id="Path"></path>
        </g>
    </g>
</svg>