<?xml version="1.0" encoding="UTF-8"?>
<svg width="1080px" height="1080px" viewBox="0 0 1080 1080" version="1.1" xmlns="http://www.w3.org/2000/svg" xmlns:xlink="http://www.w3.org/1999/xlink">
    <!-- Generator: Sketch 63.1 (92452) - https://sketch.com -->
    <title>Mouth/ 19</title>
    <desc>Created with Sketch.</desc>
    <g id="Mouth/-19" stroke="none" stroke-width="1" fill="none" fill-rule="evenodd" stroke-linecap="round" stroke-linejoin="round">
        <g id="Group" transform="translate(527.000000, 751.154962)" stroke="#000000" stroke-width="12">
            <path d="M18,15.6334 C38.5908253,16.2202776 54.1463808,15.57492 64.6666667,13.6973272 C80.4470954,10.880938 97.7038002,1.28633108 104.783626,0.14481804 C111.863451,-0.996695002 117.883041,4.98499989 119.520468,4.98499989 C121.157895,4.98499989 125.251462,-0.823218329 133.438596,0.14481804 C138.896686,0.79017562 147.083821,5.95303626 158,15.6334 C145.446394,20.7962606 129.345029,23.3776909 109.695906,23.3776909 C73.1267057,25.3137636 42.5614035,22.7323333 18,15.6334 Z" id="Path"></path>
            <path d="M154.000052,18.8450385 C144.000017,40.1783718 129.333333,50.8450385 110,50.8450385 C90.6666667,50.8450385 63.3333333,39.5117051 28,16.8450385 L-1.29318778e-12,13.8450385" id="Path"></path>
        </g>
    </g>
</svg>