<?xml version="1.0" encoding="UTF-8"?>
<svg width="1080px" height="1080px" viewBox="0 0 1080 1080" version="1.1" xmlns="http://www.w3.org/2000/svg" xmlns:xlink="http://www.w3.org/1999/xlink">
    <!-- Generator: Sketch 63.1 (92452) - https://sketch.com -->
    <title>Hairstyle/ 31</title>
    <desc>Created with Sketch.</desc>
    <g id="Hairstyle/-31" stroke="none" stroke-width="1" fill="none" fill-rule="evenodd" stroke-linecap="round" stroke-linejoin="round">
        <path d="M626.796958,610.844075 C601.971564,617.756383 572.511326,646.47937 538.416245,697.013038 C551.611851,651.622009 553.159741,612.980845 543.059913,581.089545 C532.960086,549.198246 518.5666,518.369962 499.879456,488.604692 C507.305476,479.637542 515.144196,471.118147 523.395618,463.046509 C531.647039,454.97487 549.838352,445.398188 577.969557,434.316463 C450.466285,437.246157 368.555401,429.386529 332.236905,410.737577 C277.759161,382.76415 238.760165,348.505955 224.320288,286.781241 C214.693703,245.631432 217.072619,193.708698 231.457036,131.013038 C274.980625,180.401917 309.333065,206.635935 334.514355,209.715092 C372.28629,214.333826 394.557685,203.718589 421.949587,180.080994 C429.037225,173.96478 441.796779,161.867149 460.22825,143.7881 C460.34069,159.699374 459.6527,169.769432 458.164281,173.998275 C450.374264,196.130994 444.192252,198.059193 452.968305,196.24184 C471.174914,192.471598 490.496399,188.535471 510.872902,184.252389 C521.404005,182.038782 536.206114,173.583324 555.279231,158.886014 C555.810844,172.982098 553.900895,184.457363 549.549382,193.311808 C546.812843,198.880109 537.740583,209.751412 522.3326,225.925719 C543.025852,214.634329 567.377709,212.822445 595.388173,220.490067 C619.733479,227.154384 650.89278,248.75523 692.795603,273.0347 C697.001216,275.47153 704.163527,277.283414 714.282536,278.470351 L667.011283,289.341655 C713.365693,320.529656 740.168579,346.14893 747.419942,366.199476 C751.126867,376.449393 756.489156,390.397262 759.116027,408.877863 C760.790512,420.658219 761.594209,443.577385 761.527119,477.635362 C760.469826,461.277253 755.63655,446.24684 747.027289,432.544125 C738.418029,418.84141 721.687363,407.465293 696.835293,398.415775 C725.615138,429.421618 739.645889,457.190834 738.927545,481.723423 C738.209201,506.256011 717.146594,556.459756 675.739722,632.334656 C667.936607,611.095295 651.622353,603.931768 626.796958,610.844075 Z" id="Path" stroke="#000000" stroke-width="12" fill="#000000" transform="translate(490.029057, 414.013038) scale(-1, 1) rotate(-16.000000) translate(-490.029057, -414.013038) "></path>
    </g>
</svg>