<?xml version="1.0" encoding="UTF-8"?>
<svg width="1080px" height="1080px" viewBox="0 0 1080 1080" version="1.1" xmlns="http://www.w3.org/2000/svg" xmlns:xlink="http://www.w3.org/1999/xlink">
    <!-- Generator: Sketch 63.1 (92452) - https://sketch.com -->
    <title>Hairstyle/ 32</title>
    <desc>Created with Sketch.</desc>
    <g id="Hairstyle/-32" stroke="none" stroke-width="1" fill="none" fill-rule="evenodd" stroke-linecap="round" stroke-linejoin="round">
        <path d="M579.545455,232.012136 C538.181908,253.096726 514.515241,265.763392 508.545455,270.012136 C533.212121,253.34547 574.212121,249.34547 631.545455,258.012136 C579.803255,270.423705 551.023097,279.256898 545.204983,284.511715 C553.431964,274.845329 570.212121,270.012136 595.545455,270.012136 C620.878788,270.012136 648.545455,276.34547 678.545455,289.012136 C605.443257,305.412668 563.848663,320.111767 553.761671,333.109434 C552.123176,335.220728 586,314 632,314 C662.666667,314 695.333333,305.666667 730,289 C711.219479,313.628749 696.886145,328.295416 687,333 C652.421902,349.454904 643.357761,341.79468 632,352 C640.504417,346.685669 679.545455,344.012136 696,346 C706.969697,347.325242 720.636364,344.991909 737,339 C725.876627,357.553137 714.20996,367.88647 702,370 C744.963718,388.257174 748,392 763,416 C773,432 780.935126,465.666667 786.805379,517 C775.844987,505.046496 767.805585,496.442103 762.687172,491.186822 C766.667283,528.004138 761.59005,561.941415 747.457696,593 C747.997579,565.778959 744.554852,536.785085 737.129512,506.018378 C732.583235,487.18099 727,460 712.24782,445.854884 C697.49564,431.709767 632,410 553,410 C474,410 428.104379,430.95793 412,428 C404.392978,426.6028 393.491567,432.443591 379.295767,445.522372 L380.06813,448.7074 C388.26572,482.685415 392.364515,505.362636 392.364515,516.739062 C392.364515,528.232771 383.924355,572.72458 367.044035,650.214489 L366,655 L328.116663,564.824988 L287.145773,564.824988 C271.780496,507.747385 268.106191,468.653136 276.122857,447.542242 C284.139523,426.431348 322.047032,397.666113 306,410 C300,340 328,313 392,270 C434.666667,241.333333 497.181818,228.670712 579.545455,232.012136 Z" id="Path" stroke="#000000" stroke-width="12" fill="#000000"></path>
    </g>
</svg>