<?xml version="1.0" encoding="UTF-8"?>
<svg width="1080px" height="1080px" viewBox="0 0 1080 1080" version="1.1" xmlns="http://www.w3.org/2000/svg" xmlns:xlink="http://www.w3.org/1999/xlink">
    <!-- Generator: Sketch 63.1 (92452) - https://sketch.com -->
    <title>Hairstyle/ 33</title>
    <desc>Created with Sketch.</desc>
    <g id="Hairstyle/-33" stroke="none" stroke-width="1" fill="none" fill-rule="evenodd" stroke-linecap="round" stroke-linejoin="round">
        <path d="M504,227 C583.026522,221.969957 626,225 714,284 C772.666667,323.333333 805.666667,378 813,448 L810.240019,443.67474 C798.832799,425.871972 789.752792,412.647059 783,404 C776.73249,395.974353 763.732274,386.223411 743.999352,374.747174 C743.263057,375.74042 742.413186,376.718345 741.450971,377.681783 C759.822981,398.928697 774.673643,418.701564 786,437 C798.854653,457.767494 803.187986,480.434161 799,505 C793.666667,491 787,478.666667 779,468 C771,457.333333 759.666667,449 745,443 L746.039116,444.752268 C759.952381,468.277778 769.216412,486.534155 773.831207,499.5214 L774,500 C778.666667,513.333333 781.666667,538 783,574 C773.666667,544 762,517 748,493 C734,469 699,443.666667 643,417 C644.278986,424.310445 648.612319,432.310445 656,441 C663.387681,449.689555 672.387681,458.689555 683,468 C660.028112,458.110091 638.941569,448.084782 619.74037,437.924074 L618,437 C598.334672,426.522937 573.046547,409.85627 542.135624,387 L544.287563,389.537133 C561.370622,409.615153 575.274768,424.436109 586,434 C597.172117,443.962386 609.838784,452.629053 624,460 C607.109231,461.177088 589.436025,461.217678 570.980384,460.121768 L569,460 C549.827345,458.780873 520.981052,455.780873 482.461121,451 L484.353607,451.848165 C503.778412,460.515985 519.145845,466.190787 530.455906,468.872572 L531,469 C542.720106,471.710328 559.720106,475.043661 582,479 C561.061804,483.615548 541.842724,486.582811 524.34276,487.901791 L523,488 C505.141739,489.266105 477.765006,487.932772 440.869801,484 L444.951555,485.354776 C466.421698,492.442379 483.104513,497.32412 495,500 L496.258918,500.279082 C508.793067,503.017796 525.893621,505.591435 547.560579,508 L545.447167,508.478251 C517.785461,514.714566 496.636405,518.55515 482,520 C467.265907,521.454494 449.003965,521.480939 427.214173,520.079336 L426,520 L408,595 L389.284649,540.806001 L388.918497,542.9323 C385.112355,564.837921 378.153288,599.070388 368.041295,645.6297 L366,655 L328.116663,564.824988 L287.145773,564.824988 C259.698591,514.052557 249.983334,478.110894 258,457 C261.570283,447.598102 268.856334,438.578941 279.858151,429.942517 C275.095774,392.483072 300.809856,363.502326 357,343 C402.315652,269.020028 451.315652,230.353362 504,227 Z" id="Path" stroke="#000000" stroke-width="12" fill="#000000"></path>
    </g>
</svg>