<?xml version="1.0" encoding="UTF-8"?>
<svg width="1080px" height="1080px" viewBox="0 0 1080 1080" version="1.1" xmlns="http://www.w3.org/2000/svg" xmlns:xlink="http://www.w3.org/1999/xlink">
    <!-- Generator: Sketch 63.1 (92452) - https://sketch.com -->
    <title>Hairstyle/ 34</title>
    <desc>Created with Sketch.</desc>
    <g id="Hairstyle/-34" stroke="none" stroke-width="1" fill="none" fill-rule="evenodd" stroke-linecap="round" stroke-linejoin="round">
        <path d="M279,719 L312,727 L363,804 L362.01147,804.1377 C354.393416,805.17045 349.722926,805.12455 348,804 C335.108789,795.585933 327.666566,781.235666 316,769 C301.895032,754.206985 289.561699,737.540318 279,719 Z M555,245 C595.483386,249.465079 630.916083,268.727794 660.823316,294.426859 L663.309054,294.901479 C703.948013,302.791842 748.311133,311.502955 768,340 C793.333333,376.666667 803.666667,419.666667 799,469 C782.060447,429.031951 756,397 740.032087,393.568648 C760.907985,430.158642 768,461.184423 768,473 C768,512 751.333333,552.666667 744,578 C744,543.333333 736.333333,485.333333 691,442 C637.017769,390.399338 541.817434,418 502,418 C471.274712,418 487.965662,464.878731 460.620546,499.410886 C464.67645,513.000433 473,533 494,552 C461.560444,551.983657 448.727617,532.54166 438.815286,511.855999 L435.486085,512.410429 C432.889193,512.847448 430.301511,513.309693 427.910206,513.879067 C431.101075,526.945359 438.216182,542.546553 449.254831,560.682594 C434.735005,548.356265 424.266699,534.344759 417.849913,518.648076 C417.501705,519.067254 417.216331,519.51729 417,520 C393.364515,572.739062 393,593 381,655 L366,655 L364.6281,651.8515 C349.929367,618.257167 338.053333,595.64 329,584 L328.15907,582.928969 C314.409128,565.582827 299.958209,555.500671 288,559 L287.245493,559.229979 L286.710626,559.402972 C277.923385,562.306448 258.239994,571.726984 244,589 C238.749387,595.368958 233.08272,607.368958 227,625 L226.065502,623.594496 L224.699839,621.517013 C212.006388,602.070714 205.106442,587.565043 204,578 C200.118123,544.441696 196,434 232,383 C268,332 279.906667,338.533333 308,332 C332,251.333333 417.200895,229.801569 555,245 Z" id="Shape" stroke="#000000" stroke-width="12" fill="#000000"></path>
    </g>
</svg>