<?xml version="1.0" encoding="UTF-8"?>
<svg width="1080px" height="1080px" viewBox="0 0 1080 1080" version="1.1" xmlns="http://www.w3.org/2000/svg" xmlns:xlink="http://www.w3.org/1999/xlink">
    <!-- Generator: Sketch 63.1 (92452) - https://sketch.com -->
    <title>Hairstyle/ 35</title>
    <desc>Created with Sketch.</desc>
    <g id="Hairstyle/-35" stroke="none" stroke-width="1" fill="none" fill-rule="evenodd" stroke-linecap="round" stroke-linejoin="round">
        <path d="M445,265 C601.484567,215.882108 723,324 727,324 C729.666667,324 729.333333,314 732,310 C753.333333,338 762.666667,366.666667 760,396 C756,440 752.216201,445.550054 737,470 C717.816501,433.898898 655.515725,405.848347 570.09767,405.848347 C529.820477,405.848347 496.705079,408.637076 444,422 C434.362118,429.450826 428.028785,434.78416 425,438 C415.420309,448.171325 412.101929,455.976712 408,461 C408.236015,445.490299 408.825836,435.636592 409.769461,431.438878 C399.444972,434.308603 388.894286,437.420326 378.119041,440.773505 C378.861273,449.965641 379.155599,482.707783 387,499 L371,622 L368.123842,619.45435 C345.932131,599.756795 331.687893,585.778481 325.391128,577.519408 L325,577 C318.661091,568.472658 305.994424,562.472658 287,559 L286.06864,555.56395 C277.513571,524.211841 269.945347,502.052757 266.880533,480.741849 C254.806885,485.591986 242.513008,490.678185 230,496 C269.010289,358.745261 340.676955,297.745261 445,265 Z" id="Path" stroke="#000000" stroke-width="12" fill="#000000"></path>
    </g>
</svg>