<?xml version="1.0" encoding="UTF-8"?>
<svg width="1080px" height="1080px" viewBox="0 0 1080 1080" version="1.1" xmlns="http://www.w3.org/2000/svg" xmlns:xlink="http://www.w3.org/1999/xlink">
    <!-- Generator: Sketch 63.1 (92452) - https://sketch.com -->
    <title>Hairstyle/ 36</title>
    <desc>Created with Sketch.</desc>
    <g id="Hairstyle/-36" stroke="none" stroke-width="1" fill="none" fill-rule="evenodd" stroke-linecap="round" stroke-linejoin="round">
        <path d="M540,312 C672,328 752.425459,414.219466 745,431 C738.93428,444.707707 738.93428,459.707707 745,476 C727.499846,489.392746 675.366406,429.548637 603.549841,403.064286 L601.751756,404.165199 C596.113695,407.606112 591.006376,410.616632 586.428165,413.198811 L585,414 C569.805997,422.476654 559.86523,426.483329 555.177699,426.020024 L555,426 L570.038299,393.773189 C568.000617,393.40149 565.950833,393.063992 563.889223,392.762642 L562.610148,393.979391 C553.521787,402.603784 546.117765,409.171909 540.396433,413.688236 L540,414 C531.8118,420.414806 519.581291,428.452152 503.308472,438.112038 L502.448276,438.621951 L530.202816,391.102579 C528.427253,391.140402 526.675091,391.188547 524.945944,391.246784 L523.494525,392.663189 C511.479745,404.358271 501.474201,413.346018 493.477398,419.626424 L493,420 C485.891589,425.542117 465.891589,437.875451 433,457 L459,413 C422,426 409,438 401,448 C393,458 373.394357,491.363163 395,510 L328.116663,564.824988 L287.145773,564.824988 C271.780496,507.747385 260,405 338,391 C384.666667,327.666667 452,301.333333 540,312 Z" id="Path" stroke="#000000" stroke-width="12" fill="#000000"></path>
    </g>
</svg>