<?xml version="1.0" encoding="UTF-8"?>
<svg width="1080px" height="1080px" viewBox="0 0 1080 1080" version="1.1" xmlns="http://www.w3.org/2000/svg" xmlns:xlink="http://www.w3.org/1999/xlink">
    <!-- Generator: Sketch 63.1 (92452) - https://sketch.com -->
    <title>Hairstyle/ 37</title>
    <desc>Created with Sketch.</desc>
    <g id="Hairstyle/-37" stroke="none" stroke-width="1" fill="none" fill-rule="evenodd" stroke-linecap="round" stroke-linejoin="round">
        <path d="M497.311913,301.257896 C541.611619,295.031978 579.174839,301.733865 581.211714,316.226979 L581.170598,315.947911 C650.089349,325.90485 682.60119,353.619589 699,373 C713.666667,390.333333 721,410 721,432 L707.421416,430.8708 C691.263304,429.542326 641.710952,411.403271 628.76436,410.453635 C631.023458,416.555828 632.654407,422.983126 633.657429,429.735074 L631.329023,428.090289 C613.168845,415.342025 601.493334,409.076371 596.30249,409.293328 L596.140725,409.302334 C593.535362,409.484519 590.475135,408.963644 586.960045,407.739711 L583.94525,407.584779 C582.634656,407.519471 581.363023,407.458856 580.129852,407.402778 L580.954867,408.284033 C583.506188,411.028822 585.475905,413.338036 586.86563,415.212254 C589.263863,418.446572 590.961109,421.769475 591.957369,425.180963 C578.45888,418.496783 516,394 471,403 C447.672825,407.665435 422.70032,429.11091 402.563027,425.183962 C394.010659,429.969683 386.206277,436.624167 379.295767,445.522372 C355.591535,476.044745 379,498.407588 379,516 L378.994903,516.737359 C378.830116,529.315978 374.669232,573.806555 366.512252,650.20909 L366,655 L328.116663,564.824988 L287.145773,564.824988 C271.780496,507.747385 268.106191,468.653136 276.122857,447.542242 C285.790535,422.083612 334.128068,358.354311 419.743161,330.708775 C431.77725,320.312752 466.043919,305.652326 497.311913,301.257896 Z" id="Path" stroke="#000000" stroke-width="12" fill="#000000"></path>
    </g>
</svg>