<?xml version="1.0" encoding="UTF-8"?>
<svg width="1080px" height="1080px" viewBox="0 0 1080 1080" version="1.1" xmlns="http://www.w3.org/2000/svg" xmlns:xlink="http://www.w3.org/1999/xlink">
    <!-- Generator: Sketch 63.1 (92452) - https://sketch.com -->
    <title>Hairstyle/ 38</title>
    <desc>Created with Sketch.</desc>
    <g id="Hairstyle/-38" stroke="none" stroke-width="1" fill="none" fill-rule="evenodd" stroke-linecap="round" stroke-linejoin="round">
        <path d="M605,263 C704,296 733,387.1389 733,419 C733,436.655103 716,442.655103 682,437 C642.059112,410.221322 605.392445,393.887989 572,388 C504.630815,376.120995 467,422 445,424 C423,426 408,437 399,463 C393,480.333333 399,506 417,540 L382,655 L366,655 L328.116663,564.824988 L287.145773,564.824988 C265.130495,517.303157 245,413 269,379 C285,356.333333 304.333333,345 327,345 C333,330.333333 348.333333,312 373,290 C410,257 506,230 605,263 Z" id="Path" stroke="#000000" stroke-width="12" fill="#000000"></path>
    </g>
</svg>