<?xml version="1.0" encoding="UTF-8"?>
<svg width="1080px" height="1080px" viewBox="0 0 1080 1080" version="1.1" xmlns="http://www.w3.org/2000/svg" xmlns:xlink="http://www.w3.org/1999/xlink">
    <!-- Generator: Sketch 63.1 (92452) - https://sketch.com -->
    <title>Hairstyle/ 39</title>
    <desc>Created with Sketch.</desc>
    <g id="Hairstyle/-39" stroke="none" stroke-width="1" fill="none" fill-rule="evenodd" stroke-linecap="round" stroke-linejoin="round">
        <path d="M499,255 C530.507692,267.471795 565.589932,277.321979 605.267776,288.553091 C644.945621,299.784203 671.888293,320.969512 700,348 C752,398 746.942017,484.287836 739,493 C737.600721,494.534969 721.324844,463.054056 700,444 L698.615047,442.770136 C675.805582,422.636945 644.019794,400.454266 642,402 C619.676822,419.083773 627.675037,420.272787 595,427 C561,434 549.626445,424.652109 503,416 C450.976742,410.003073 417.976742,416.003073 404,434 C380.295767,464.522372 392.364515,499.14665 392.364515,516.739062 C392.364515,528.232771 383.924355,572.72458 367.044035,650.214489 L366,655 L328.116663,564.824988 L287.145773,564.824988 C271.780496,507.747385 268.106191,468.653136 276.122857,447.542242 L276.870382,445.586062 L277.654986,443.563497 C279.548513,438.724041 287.996851,432.536209 303,425 L302.937949,423.116633 C302.412429,405.677966 303.388394,392.143158 305.865843,382.512209 L306,382 C309.046839,370.574354 322.516825,329.262012 388.883513,302.934835 L366.282472,283.125309 C365.856526,282.751583 365.429035,282.37648 365,282 L366.924958,281.941511 C392.744132,281.203532 411.769146,282.556362 424,286 C427.172185,286.893139 430.481071,288.094087 433.926659,289.602843 C437.048788,288.940412 440.24773,288.306891 443.524599,287.70483 L415.064161,260.610217 L418.214118,260.776709 C447.350224,262.358778 469.108697,264.728834 483.489535,267.886878 L484,268 C493.81349,270.194661 506.25524,274.140606 521.325248,279.837835 C525.183904,279.730896 528.949744,279.678767 532.630833,279.678125 L499,255 Z" id="Path" stroke="#000000" stroke-width="12" fill="#000000"></path>
    </g>
</svg>