<?xml version="1.0" encoding="UTF-8"?>
<svg width="1080px" height="1080px" viewBox="0 0 1080 1080" version="1.1" xmlns="http://www.w3.org/2000/svg" xmlns:xlink="http://www.w3.org/1999/xlink">
    <!-- Generator: Sketch 63.1 (92452) - https://sketch.com -->
    <title>Hairstyle/ 40</title>
    <desc>Created with Sketch.</desc>
    <g id="Hairstyle/-40" stroke="none" stroke-width="1" fill="none" fill-rule="evenodd" stroke-linecap="round" stroke-linejoin="round">
        <path d="M639,277.307692 C667.430466,286.446056 696,298 704,336 C710.841959,368.499305 711,378 689,446 C682.333333,430.666667 649.333333,422 590,420 C561.160289,419.027875 528.044242,403.964426 495,406 C470.467105,407.511263 431.899027,420.685387 379.295767,445.522372 L380.06813,448.7074 C388.26572,482.685415 392.364515,505.362636 392.364515,516.739062 C392.364515,527.769504 384.591023,569.191604 369.04404,641.005361 L366,655 L328.116663,564.824988 L287.145773,564.824988 C271.780496,507.747385 268.106191,468.653136 276.122857,447.542242 C284.139523,426.431348 296.098571,411.2506 312,402 C331,367 470.356679,328.329573 494.117645,324.238152 C495.771613,323.953354 497.385403,323.708956 498.959015,323.504958 L500.460598,322.624284 C508.552082,317.838216 513.9504,313.985472 519.924036,310.186455 C492.292018,313.158396 451.984427,326.133143 399.002272,349.110519 C446.763012,317.858488 490.246471,301.828311 529.452649,301.01999 C531.819696,300.971188 534.13614,300.973221 536.401981,301.026089 C538.423535,300.054515 540.610502,299.049048 543,298 C548.898834,295.410268 556.081051,293.379429 564.105884,291.940242 C536.526425,289.838513 492.545498,297.698542 432.165935,315.521307 C483.379338,290.322794 528.492266,279.711405 567.504716,283.68714 C577.797417,284.736062 587.012693,286.630736 595.150544,289.371159 C618.568347,289.359716 644.007085,293.263291 664.639863,301.588812 C657.176412,294.844313 648.629933,289.750518 639,286.307692 C613.258191,277.104662 566.924857,275.104662 500,280.307692 C555.333333,266.307692 601.666667,265.307692 639,277.307692 Z" id="Path" stroke="#000000" stroke-width="12" fill="#000000"></path>
    </g>
</svg>