<?xml version="1.0" encoding="UTF-8"?>
<svg width="1080px" height="1080px" viewBox="0 0 1080 1080" version="1.1" xmlns="http://www.w3.org/2000/svg" xmlns:xlink="http://www.w3.org/1999/xlink">
    <!-- Generator: Sketch 63.1 (92452) - https://sketch.com -->
    <title>Hairstyle/ 41</title>
    <desc>Created with Sketch.</desc>
    <g id="Hairstyle/-41" stroke="none" stroke-width="1" fill="none" fill-rule="evenodd" stroke-linecap="round" stroke-linejoin="round">
        <path d="M470,216 L472.761014,217.998364 C517.440539,250.400904 541.68499,271.17057 545.494367,280.307362 L545.616,280.617 L545.654895,280.243128 C546.573458,271.112304 547.021827,263.697928 547,258 L546.990321,257.059591 C546.90204,251.639132 546.238599,242.952602 545,231 L546.193866,231.951859 C563.921287,246.180569 573.523332,258.196616 575,268 C578.537565,291.485386 571.321387,312.617128 565.18559,320.757315 L565,321 C563.361505,323.111294 583,304 588,281 C591.333333,265.666667 591.333333,253 588,243 C618.891511,252.970767 635.891511,266.970767 639,285 C642.265306,303.938776 642.331945,322.237818 639.199917,339.897126 L639.002,340.988 L639.1426,340.3035 C643.9342,317.4345 657.22,306 679,306 C701,306 723.666667,315 747,333 L745.543958,333.641431 C730.174956,340.441264 719.993637,345.894121 715,350 C709.850312,354.234188 705.516979,360.900855 702,370 L704.929395,369.684453 C717.818601,368.256823 726.751339,366.725647 731.727611,365.090924 L732,365 C747.609628,359.704209 766.034699,369.637856 765,370 C745,377 738,401 745,410 C749.666667,416 762,420.333333 782,423 C751.124781,449.791214 728.791448,458.457881 715,449 C694.312828,434.813178 694.13489,417.86464 674,416 C649.259641,413.708859 659.553817,449 616,449 C578.396033,449 543.49473,432.452545 507,425 C467.62856,416.960006 428.054071,417.523379 418.544402,416.090323 L418,416 C410.392978,414.6028 393.491567,432.443591 379.295767,445.522372 L380.06813,448.7074 L381.032167,452.730518 C388.587066,484.481512 392.364515,505.817693 392.364515,516.739062 C392.364515,528.232771 383.924355,572.72458 367.044035,650.214489 L366,655 L328.116663,564.824988 L287.145773,564.824988 C272.111315,508.976283 268.269828,470.344895 275.621311,448.930823 C264.765472,438.545773 255.225074,418.901367 247,390 C263.28546,398.390965 280.425946,401.819521 298.421458,400.285668 C289.570908,388.811736 286.280849,369.929427 288.55025,343.638893 C295.56466,351.119066 303.401789,357.58787 312.061635,363.045305 C326.325282,325.452413 360.219895,304.953142 375,285 C388.333333,267 390,249 380,231 C436.666667,239.666667 470,249.333333 480,260 C481.333333,246.666667 478,232 470,216 Z M545.616,280.617 L545.570094,281.077931 L545.331292,283.350308 C545.289957,283.734641 545.247854,284.121777 545.204983,284.511715 C546.091553,283.710981 546.260941,282.501984 545.713147,280.884724 L545.616,280.617 Z" id="Shape" stroke="#000000" stroke-width="12" fill="#000000"></path>
    </g>
</svg>