<?xml version="1.0" encoding="UTF-8"?>
<svg width="1080px" height="1080px" viewBox="0 0 1080 1080" version="1.1" xmlns="http://www.w3.org/2000/svg" xmlns:xlink="http://www.w3.org/1999/xlink">
    <!-- Generator: Sketch 63.1 (92452) - https://sketch.com -->
    <title>Hairstyle/ 42</title>
    <desc>Created with Sketch.</desc>
    <g id="Hairstyle/-42" stroke="none" stroke-width="1" fill="none" fill-rule="evenodd" stroke-linecap="round" stroke-linejoin="round">
        <path d="M524,224 C538,226.666667 547.666667,230.666667 553,236 C558.333333,241.333333 562.666667,250.666667 566,264 C576.666667,250 582.666667,241.333333 584,238 C585.333333,234.666667 586,225.333333 586,210 C591.736997,214.345519 595.07033,220.012186 596,227 C597.394505,237.481721 595.813499,237.138558 594,249 C604.666667,254.333333 615.121428,249.013404 621.788094,243.013404 C628.454761,237.013404 632.788094,229.680071 634.788094,221.013404 C641.016578,224.834485 645.683244,229.167818 648.788094,234.013404 C651.892945,238.85899 655.152731,246.896079 658.567453,258.124672 C665.418994,255.141124 669.949453,252.207292 672.158831,249.323176 C674.368208,246.43906 675.967194,241.371532 676.955787,234.120592 C678.786559,238.210551 679.852549,241.411095 680.153758,243.722224 C680.454968,246.033352 678.211652,271.783675 677,281 C682.535855,279.103814 686.702687,278.8975 692,275 C696.888551,271.403247 701.221884,266.73658 705,261 C705.566477,270.618782 705.566477,278.618782 705,285 C704.433523,291.381218 702.813882,301.62604 700.141078,315.734466 C721.325523,311.999591 732.874529,305.759237 734.788094,297.013404 C736.70166,288.267571 734.246899,279.5875 723,275 C737,275 745.471021,277.268833 752.108108,284.529161 C762.06374,295.419653 757.788094,309.013404 750.788094,318.013404 C746.121428,324.013404 740.788094,328.346737 734.788094,331.013404 C749.943133,334.966892 759.562522,333.710357 763.646261,327.243799 L763.788094,327.013404 C767.788094,320.346737 776.121428,312.680071 788.788094,304.013404 L788.44932,305.897925 C783.013586,336.437795 782.359246,355.185938 786.486298,362.142356 C790.796484,359.688968 793.634385,357.641516 795,356 C800.368894,349.546406 801.668846,345.497408 801,352 C799.574904,365.854926 787.832335,385.380335 780.101754,390.538201 C775.593025,393.546439 768.501813,395.55597 758.828116,396.566796 C757.846822,398.596944 756.809249,400.566737 755.716697,402.477583 C758.235179,408.042356 764.662917,410.216483 775,409 C788.262116,407.439295 798.262116,400.105961 805,387 C805,399.666667 799.333333,411 788,421 L786.984889,421.890229 C770.482566,436.27057 757.694145,442.784244 734,438 C729.849849,437.162015 726.249975,436.092144 723.200377,434.790386 C715.671533,438.987076 707.271325,442.250175 697.999909,444.579207 L695.952571,445.088213 C686.405752,447.437901 672.403626,450.56189 656.008634,453.473685 C654.178746,458.120572 652.0829,462.012126 648,464 C641.180827,467.320105 630.382593,465.74953 615.605298,459.288275 C613.207732,459.546413 610.796826,459.788886 608.376671,460.0138 L606.957596,460.875446 C595.059936,468.159918 589.407547,473.201429 590,476 C591.225255,481.787739 600.891921,485.787739 619,488 L617.263079,488.403648 C601.757381,491.961459 589.669688,493.493576 581,493 C572.009212,492.488144 562.158152,489.539516 551.446819,484.154117 L549.835038,484.692477 C538.795179,488.415573 532.850167,491.184747 532,493 C529.813817,497.667879 528.14715,502.334546 527,507 L495.482325,484.154117 C487.648931,483.632734 478.821489,480.914696 469,476 C459.178511,471.085304 452.549092,466.068695 449.111744,460.950172 C431.496942,465.11705 421.103536,470.184578 417.931525,476.152756 C413.173509,485.105024 409.431863,486.597193 421,492 C428.712091,495.601872 439.90499,495.601872 454.578697,492 L453.238723,493.008004 C438.585112,503.948313 423.677605,504.443435 412,503 C404.21493,502.03771 396.547975,497.572889 388.999133,489.605538 L389.40666,491.845057 C391.378563,502.861428 392.364515,511.15943 392.364515,516.739062 C392.364515,528.232771 383.924355,572.72458 367.044035,650.214489 L366,655 L328.116663,564.824988 L287.145773,564.824988 C271.780496,507.747385 268.106191,468.653136 276.122857,447.542242 C283.951298,426.927013 303.883748,411.158185 335.920205,400.235757 L334,397 C326.231351,383.601643 339.512273,379.865053 343.842767,357.790231 C348.173262,335.715409 357.788094,343.013404 372.788094,323.013404 C386.262698,304.337801 406.333333,288.333333 433,275 C473,255 504.650518,265.52676 521.788094,264.013404 C538.925671,262.500048 543,272 543,253 C543,240.333333 536.666667,230.666667 524,224 Z" id="Path" stroke="#000000" stroke-width="12" fill="#000000"></path>
    </g>
</svg>