<?xml version="1.0" encoding="UTF-8"?>
<svg width="1080px" height="1080px" viewBox="0 0 1080 1080" version="1.1" xmlns="http://www.w3.org/2000/svg" xmlns:xlink="http://www.w3.org/1999/xlink">
    <!-- Generator: Sketch 63.1 (92452) - https://sketch.com -->
    <title>Hairstyle/ 43</title>
    <desc>Created with Sketch.</desc>
    <g id="Hairstyle/-43" stroke="none" stroke-width="1" fill="none" fill-rule="evenodd" stroke-linecap="round" stroke-linejoin="round">
        <path d="M544,253 L528.944135,271.167153 C568.314712,256.389051 601,263 643,291 C706,333 701,361 720,386 C732.666667,402.666667 746.666667,415.333333 762,424 C726.000792,420.301266 703.590514,417.34963 694.769168,415.145091 L694.28825,415.023879 C680.11538,411.421057 663.104976,401.88217 643.257038,386.407218 L647.113417,390.675594 C658.226264,402.895725 667.201048,412.043051 674.037769,418.117572 C681.648459,424.879775 713.550189,438.840584 727,446 C689.666667,443.333333 662.428467,437.060033 645.2854,427.1801 C619.5708,412.3602 594.198336,392.866464 574,388 C570.218049,387.0888 565.104938,386.178719 559.065261,385.407252 L560.454152,387.861271 C570.848292,406.355561 583.418586,431.126234 605,445 C623.666667,457 642.666667,464.333333 662,467 C620.448426,461.431315 589.115092,443.764648 568,414 C560.977321,404.100561 553.193058,394.101344 544.647212,384.002349 C517.804765,382.134524 482.07774,383.605491 458.704477,395.632312 L455.95901,397.070556 C422.610118,414.404609 388.805915,424.430447 379.295767,445.522372 C364.032316,479.374168 379,498.407588 379,516 L378.994903,516.737359 L378.980221,517.530371 L378.956527,518.381828 C378.513174,532.297518 374.678695,573.293996 367.453091,641.371263 L366,655 L328.116663,564.824988 L287.145773,564.824988 C271.780496,507.747385 268.106191,468.653136 276.122857,447.542242 C280.074083,437.137177 290.484708,420.339394 307.25968,402.225062 C304.178956,389.659107 303.281702,378.972842 304.568808,370.16533 C306.797393,354.915383 317.597649,331.454877 336.969577,299.783813 L336.969577,326.080204 C365.150318,298.582683 393.770998,280.278333 422.831615,271.167153 C451.892233,262.055973 492.281694,256.000256 544,253 Z" id="Path" stroke="#000000" stroke-width="12" fill="#000000"></path>
    </g>
</svg>