<?xml version="1.0" encoding="UTF-8"?>
<svg width="1080px" height="1080px" viewBox="0 0 1080 1080" version="1.1" xmlns="http://www.w3.org/2000/svg" xmlns:xlink="http://www.w3.org/1999/xlink">
    <!-- Generator: Sketch 63.1 (92452) - https://sketch.com -->
    <title>Hairstyle/ 44</title>
    <desc>Created with Sketch.</desc>
    <g id="Hairstyle/-44" stroke="none" stroke-width="1" fill="none" fill-rule="evenodd" stroke-linecap="round" stroke-linejoin="round">
        <path d="M597,238 C641.824102,249.881087 671.654704,291.240476 696.256094,360.881025 L697,363 C700.66396,373.501522 708.997294,386.501522 722,402 L697,422 C682.82713,418.397178 663.104976,401.88217 643.257038,386.407218 L647.113417,390.675594 L648.979953,392.721175 C659.235427,403.921426 667.588032,412.386892 674.037769,418.117572 C681.648459,424.879775 713.550189,438.840584 727,446 L724.772114,445.835672 C688.581177,443.080959 662.085605,436.862435 645.2854,427.1801 L643.626916,426.217685 C618.481904,411.528525 593.763963,392.761809 574,388 L573.066981,387.781404 C569.394021,386.944074 564.621764,386.117002 559.065261,385.407252 L560.454152,387.861271 L565.488451,396.882917 C574.977097,413.798314 586.775694,433.284375 605,445 C623.666667,457 642.666667,464.333333 662,467 C620.863942,461.487002 589.742781,444.116772 568.636518,414.88931 L568,414 C560.977321,404.100561 553.193058,394.101344 544.647212,384.002349 C536.125276,383.409352 526.707833,383.152884 517.074507,383.463889 C522.562797,395.452696 528.871415,406.631149 536,417 C545.921761,431.431652 558.588428,442.431652 574,450 C558.313632,446.103899 544.980299,437.770565 534,425 C524.820463,414.323799 515.394191,400.691658 505.721184,384.103577 C488.662287,385.491675 471.757079,388.916035 458.704477,395.632312 L455.95901,397.070556 C422.610118,414.404609 448.510148,432.908075 439,454 C423.736548,487.851796 379,498.407588 379,516 L378.994903,516.737359 L378.980221,517.530371 L378.956527,518.381828 C378.513174,532.297518 374.678695,573.293996 367.453091,641.371263 L366,655 L328.116663,564.824988 L287.145773,564.824988 C271.780496,507.747385 268.106191,468.653136 276.122857,447.542242 C280.074083,437.137177 290.484708,420.339394 307.25968,402.225062 C304.178956,389.659107 303.281702,378.972842 304.568808,370.16533 C306.797393,354.915383 337.168385,294.832847 401,269 C428.458603,257.887421 444.639222,265.754145 470,256 C483,251 514,216 597,238 Z" id="Path" stroke="#000000" stroke-width="12" fill="#000000"></path>
    </g>
</svg>