<?xml version="1.0" encoding="UTF-8"?>
<svg width="1080px" height="1080px" viewBox="0 0 1080 1080" version="1.1" xmlns="http://www.w3.org/2000/svg" xmlns:xlink="http://www.w3.org/1999/xlink">
    <!-- Generator: Sketch 63.1 (92452) - https://sketch.com -->
    <title>Hairstyle/ 45</title>
    <desc>Created with Sketch.</desc>
    <g id="Hairstyle/-45" stroke="none" stroke-width="1" fill="none" fill-rule="evenodd" stroke-linecap="round" stroke-linejoin="round">
        <path d="M292.971156,564.824886 C277.872605,567.271527 258.566309,554.108225 246.937064,532.236796 C233.584042,507.123414 235.40917,480.038928 251.013601,471.741905 C252.305216,471.055141 253.650751,470.518621 255.040004,470.12642 C243.352505,453.821303 242.471223,429.446612 254.564755,408.5 C260.568944,398.100439 268.904012,390.048091 278.21888,384.816521 C275.439614,369.838253 277.641661,354.211005 285.597133,340.431724 C293.987293,325.899541 307.357175,315.881632 322.717625,311.055694 C323.666659,302.497091 326.329061,294.07553 330.847133,286.25 C343.210514,264.835996 366.38672,253.224156 390.811533,253.582866 C398.1779,228.269039 419.207455,210 444,210 C454.192668,210 463.749322,213.0878 471.982139,218.483458 C484.406161,205.889318 502.216465,198 522,198 C543.277227,198 562.272011,207.125607 574.740923,221.414208 C585.991688,214.179164 599.27385,210 613.5,210 C654.092929,210 687,244.026359 687,286 L686.997408,286.645015 L686.997408,286.645015 C689.602941,286.219754 692.276541,286 695,286 C723.166522,286 746,309.505051 746,338.5 C746,347.5352 743.78281,356.037317 739.877965,363.461241 C761.166704,393.857331 753.206448,421.370379 716,446 C694.60679,460.161702 604.369062,465.352796 550.69367,460.998791 C511.120052,457.788685 428.104379,430.95793 412,428 C404.392978,426.6028 415.059645,436.6028 444,458 C409.92058,485.156789 392.710473,504.618409 392.369679,516.384859 L392.364515,516.739062 C392.364515,528.232771 383.924355,572.72458 367.044035,650.214489 L366,655 L328.116663,564.824988 L292.971156,564.824886 Z" id="Path" stroke="#000000" stroke-width="12" fill="#000000"></path>
    </g>
</svg>