<?xml version="1.0" encoding="UTF-8"?>
<svg width="1080px" height="1080px" viewBox="0 0 1080 1080" version="1.1" xmlns="http://www.w3.org/2000/svg" xmlns:xlink="http://www.w3.org/1999/xlink">
    <!-- Generator: Sketch 63.1 (92452) - https://sketch.com -->
    <title>Hairstyle/ 48</title>
    <desc>Created with Sketch.</desc>
    <g id="Hairstyle/-48" stroke="none" stroke-width="1" fill="none" fill-rule="evenodd" stroke-linecap="round" stroke-linejoin="round">
        <path d="M328.116663,564.824988 L366,655 C378.91417,598.389025 391.247503,560.055691 403,540 C417.572082,515.132673 443.238749,499.79934 480,494 C478.139324,487.297665 476.805991,480.964332 476,475 C475.194009,469.035668 475.194009,463.035668 476,457 L362,410 L492,433 C539.345767,423.971911 580.6791,419.305244 616,419 C636.862754,418.819704 662.529421,421.153037 693,426 C683,397.333333 649.333333,375 592,359 C506,335 397,367 346,426 C312,465.333333 293.333333,511.666667 290,565 L328.116663,564.824988 Z" id="Path" stroke="#000000" stroke-width="12" fill="#000000"></path>
    </g>
</svg>