<?xml version="1.0" encoding="UTF-8"?>
<svg width="1080px" height="1080px" viewBox="0 0 1080 1080" version="1.1" xmlns="http://www.w3.org/2000/svg" xmlns:xlink="http://www.w3.org/1999/xlink">
    <!-- Generator: Sketch 63.1 (92452) - https://sketch.com -->
    <title>Hairstyle/ 49</title>
    <desc>Created with Sketch.</desc>
    <g id="Hairstyle/-49" stroke="none" stroke-width="1" fill="none" fill-rule="evenodd" stroke-linecap="round" stroke-linejoin="round">
        <path d="M507,212 C570,216 601.357248,238.220048 644,273 C657.096779,267.680059 685,269 717,300 C749,331 720.530845,381.002574 710,448 C644.975103,400.473198 579.975103,400.473198 515,448 C417.537345,519.290204 425.666667,593 379,625 L376.717273,620.335898 L374.830168,616.518903 C366.736502,600.230963 361.126446,590.057995 358,586 C352.543445,578.917621 333.32,563.08 300,567 C277.333333,569.666667 229,608 242,653 C247.836649,673.203785 261.232427,689.023276 282.187333,700.458472 C288.96094,704.154863 300.898496,708.668706 318,714 C310.666667,715.333333 304.333333,716 299,716 C293.666667,716 287.666667,715 281,713 C248.333333,751.666667 213.333333,769.333333 176,766 C120,761 107,703 126,666 C145,629 220.422738,645.247139 219,640 C172.120588,646.624124 162.816875,622.400128 126,617 C167.990977,609.838724 181.263579,627.383314 219,617 C218.546853,614.903126 176.947744,589.736985 148,586 C180.089301,580.029339 184.389072,596.950209 213,589 C203.213818,527.783227 197.71419,429.136631 242,360 C314.944259,246.123337 444,208 507,212 Z" id="Path" stroke="#000000" stroke-width="12" fill="#000000"></path>
    </g>
</svg>