<?xml version="1.0" encoding="UTF-8"?>
<svg width="1080px" height="1080px" viewBox="0 0 1080 1080" version="1.1" xmlns="http://www.w3.org/2000/svg" xmlns:xlink="http://www.w3.org/1999/xlink">
    <!-- Generator: Sketch 63.1 (92452) - https://sketch.com -->
    <title>Hairstyle/ 51</title>
    <desc>Created with Sketch.</desc>
    <g id="Hairstyle/-51" stroke="none" stroke-width="1" fill="none" fill-rule="evenodd" stroke-linecap="round" stroke-linejoin="round">
        <path d="M382,274 C429.759312,244.346457 494.388427,241.406903 575.887344,265.181337 L577.139092,264.650377 C597.827365,255.948652 630.439527,246.059165 677,272 C747,311 754.978338,383.100602 781,387 C799.458616,389.766061 805.558239,435.498473 822,477 C826.068389,487.269238 841.068389,495.602571 867,502 L822,521 C828.617196,527.728008 836.283863,533.728008 845,539 C852.552338,543.568062 862.885671,553.901396 876,570 C847.861129,575.165164 831.861129,581.83183 828,590 C824.89109,596.57686 861.404208,604.103149 872,648 C886,706 839.988405,786.030199 868.951551,803.495401 C877.697471,808.769319 893.697471,818.769319 916.951551,833.495401 C882.166225,867.866011 856.832891,882.866011 840.951551,878.495401 C816.406068,871.740383 788.406068,856.740383 756.951551,833.495401 C764.588861,744.869936 766.938344,675.371469 764,625 C760.914363,572.103517 746.182481,514.787579 732,493 C697.559299,440.091098 627,387 540,387 C495.385833,387 471.693808,399.821066 468.923924,425.463199 C465.117339,446.727532 465.114862,469.946069 450,502 C423.773809,557.617611 331.048449,595.504599 331.048449,624.504599 C331.048449,653.504599 340.048449,654.504599 340.048449,670.504599 C340.048449,686.504599 328.018543,694.862412 331.048449,716.504599 C333.068387,730.932724 344.019937,804.094791 360,825 C332.473355,852.86733 306.806689,870.533997 283,878 C259.193311,885.466003 228.526645,885.466003 191,878 C200.305848,869.655538 206.972515,861.988871 211,855 L211.391752,854.308014 C215.329225,847.231721 219.865308,835.462383 225,819 C218.697111,825.704817 212.363777,830.371483 206,833 C199.636223,835.628517 190.636223,837.295183 179,838 L181.001859,835.563683 C186.361333,829.017056 190.519283,823.734704 193.475708,819.716628 L194.432451,818.40839 C199.250253,811.846395 203.626303,806.699753 201,796 C198.2953,784.980851 163.571255,686.372169 165.048449,653.504599 C166.033245,631.592885 176.699912,599.259552 197.048449,556.504599 C193.584959,560.37811 189.584959,563.37811 185.048449,565.504599 C180.51194,567.631088 173.845273,569.631088 165.048449,571.504599 L166.288475,570.400409 C177.119603,560.711764 184.706261,552.746494 189.048449,546.504599 C193.554493,540.027161 196.22116,533.027161 197.048449,525.504599 C190.853707,527.31359 185.853707,527.980256 182.048449,527.504599 C178.243191,527.028942 172.576524,525.028942 165.048449,521.504599 L166.343408,520.889583 C174.862276,516.819876 181.097289,513.358214 185.048449,510.504599 C189.197167,507.508303 194.5305,502.508303 201.048449,495.504599 L202.219783,492.968763 C221.27446,451.815391 236.550682,423.66067 248.048449,408.504599 C280.197628,366.126352 314.720432,340.407659 344.048449,318.504599 C360.258453,306.398472 368.715979,282.247989 382,274 Z" id="Path" stroke="#000000" stroke-width="12" fill="#000000"></path>
    </g>
</svg>