<?xml version="1.0" encoding="UTF-8"?>
<svg width="1080px" height="1080px" viewBox="0 0 1080 1080" version="1.1" xmlns="http://www.w3.org/2000/svg" xmlns:xlink="http://www.w3.org/1999/xlink">
    <!-- Generator: Sketch 63.1 (92452) - https://sketch.com -->
    <title>Hairstyle/ 52</title>
    <desc>Created with Sketch.</desc>
    <g id="Hairstyle/-52" stroke="none" stroke-width="1" fill="none" fill-rule="evenodd" stroke-linecap="round" stroke-linejoin="round">
        <path d="M512,159.966358 C529.495144,159.966358 548.056153,149.154015 564,151 C671.997018,163.503936 742.660193,227.854262 781,289.497769 C798.103709,316.997454 832.17172,357.301089 848,385 C872.890626,428.557684 881.077011,473.61072 881,540 C880.9675,568.017942 882.693139,582.736765 881,600 C880.278164,607.359839 872.611497,621.359839 858,642 C867.049102,640.606371 874.715768,638.273037 881,635 C887.284232,631.726963 895.617565,625.726963 906,617 C896.666667,648.333333 888.333333,666.666667 881,672 C870,680 853,681 863,695 C873,709 892,713.587367 918,709 C879.594389,742.832207 847.927723,762.832207 823,769 C798.072277,775.167793 771.405611,778.128143 743,777.88105 L744.736492,772.641202 C763.253188,716.487555 775.341024,670.689486 781,635.246996 C787.192253,596.464564 768.614679,548.940715 764,528.632681 C756,493.426708 711,455 669,419 C641,395 593,376.742476 525,364.227429 L448,375.187779 C452.666667,399.062593 438.333333,484 421,540 C395,624 336,623.290251 357,653.182115 C378,683.073979 334,683 334,716 C334,738 359.666667,752.666667 411,760 C377,782 347.333333,791.333333 322,788 C277.764548,782.179546 250.087005,755.816037 238,760 C220.666667,766 220.666667,778.333333 238,797 C204.666667,792.333333 179,780 161,760 C134,730 136.324135,705.968933 138,685 C139.675865,664.031067 156.923476,668.03142 170,647.389289 C187.219175,620.207719 139.708942,582.818574 140,557.52815 C140.291796,532.173599 161.203267,500.097769 173,461.874185 C181.216606,435.25087 180.158048,400.228294 185,385.151734 C209,310.422073 252.196553,275.33175 292,247.649159 C316.914685,230.321438 337,180.890663 393,159.966358 C449,139.042053 472.944616,159.966358 512,159.966358 Z" id="Path" stroke="#000000" stroke-width="12" fill="#000000"></path>
    </g>
</svg>