<?xml version="1.0" encoding="UTF-8"?>
<svg width="1080px" height="1080px" viewBox="0 0 1080 1080" version="1.1" xmlns="http://www.w3.org/2000/svg" xmlns:xlink="http://www.w3.org/1999/xlink">
    <!-- Generator: Sketch 63.1 (92452) - https://sketch.com -->
    <title>Hairstyle/ 53</title>
    <desc>Created with Sketch.</desc>
    <g id="Hairstyle/-53" stroke="none" stroke-width="1" fill="none" fill-rule="evenodd" stroke-linecap="round" stroke-linejoin="round">
        <path d="M613.5,244 C654.092929,244 687,274.026359 687,316 L686.997408,316.645015 C689.602941,316.219754 692.276541,316 695,316 C723.166522,316 748,330 770,373 C792,416 781,435 792,448 C803,461 820,467 828,493 C836,519 815.241172,509.297891 816,550 C816.540035,578.966504 832,566 832,617 C832,635.646681 819.419431,660.856509 821,689 C823.742399,737.830961 843,729 832,770 C824.666667,797.333333 787.333333,811.333333 720,812 C754.951577,711.107877 770.951577,647.44121 768,621 C765.048423,594.55879 757.71509,553.55879 746,498 C734.666667,478 720,468 702,468 C675,468 688.707341,428 659,428 C644.333333,428 629.666667,439 615,461 C603.666667,439 589.666667,428 573,428 C548,428 533,434 510,461 C487,488 450.813209,483.581783 443,498 C433.327694,515.848929 463,540 443,556 C423,572 396,533 388,547 C382.666667,556.333333 374.666667,575.333333 364,604 C362,591.333333 356.333333,580 347,570 C333,555 238,566 238,634 C238,679.333333 268,705.666667 328,713 C336.734174,731.300174 356.172508,756.650248 388,790 C400.792512,803.404358 424.459179,820.404358 459,841 C454.626161,877.649277 451.626161,902.315944 450,915 C447.857449,931.711898 419.355549,966.144143 377,979 C361.306484,983.763333 334.639817,977.763333 295,973 C286.333333,979.666667 282,986 282,992 C282,1001 294.500212,1015.12789 311,1014 C295.750325,1022.84648 280.416992,1027.51315 265,1028 C249.873894,1028.47767 233.544827,1025.59882 216.012798,1019.36346 L215,1019 L214.985824,1018.93086 C193.839504,1014.34188 178,995.520697 178,973 C178,953.067922 190.407466,936.033763 207.920234,929.199685 C209.175307,926.563312 209.868379,923.829849 210,921 C210.143675,917.910984 209.623169,914.603521 208.438481,911.077612 C194.977335,902.812212 186,887.95449 186,871 C186,854.808217 194.187801,840.528797 206.64889,832.076254 C206.967526,829.645055 164,798 164,770 C164,742 181.927058,736.835873 182,725 C182.155217,699.8139 167.922724,696.540935 171,675 C174,654 193.651754,643.114123 196,632 C201.61515,605.423793 194.409077,567.818285 196,556 C203,504 246.225257,477.707402 245,477 C221.563661,463.469024 238,428 249,416 C260,404 286.639611,394.95588 298,390 C296.037882,369.821436 297,336 316,317 C335,298 356.303068,292.453714 388.364698,297.863849 C392.53783,265.434339 432.418779,240 481,240 C512.538069,240 540.409516,250.718989 557.226306,267.112448 C570.705858,250.534813 590.913129,244 613.5,244 Z" id="Path" stroke="#000000" stroke-width="12" fill="#000000"></path>
    </g>
</svg>