<?xml version="1.0" encoding="UTF-8"?>
<svg width="1080px" height="1080px" viewBox="0 0 1080 1080" version="1.1" xmlns="http://www.w3.org/2000/svg" xmlns:xlink="http://www.w3.org/1999/xlink">
    <!-- Generator: Sketch 63.1 (92452) - https://sketch.com -->
    <title>Hairstyle/ 54</title>
    <desc>Created with Sketch.</desc>
    <g id="Hairstyle/-54" stroke="none" stroke-width="1" fill="none" fill-rule="evenodd" stroke-linecap="round" stroke-linejoin="round">
        <path d="M487,190.997158 C397,190.997158 261,287 208,414 C155,541 112.933175,911.175609 151,968 C220,1071 237,921 311,968 C335.905043,983.818068 371.10908,800.583946 359,788 C341.351402,769.6593 325.684735,746.6593 312,719 C258.666667,709.666667 232,683 232,639 C232,573 286,566 311,566 C327.666667,566 343.666667,581 359,611 C372.333333,598.333333 380.333333,577.333333 383,548 C384.869473,527.435795 470,502 540,476 C586.666667,458.666667 627,438 661,414 C678.549801,431.2435 694.216467,446.910167 708,461 C753,507 764,568 764,639 C764,675.670431 752.251817,769.763272 735,851 C718.849454,927.050972 696.711463,991.067194 708,1008 C721.184071,1027.77611 737.43006,978.28497 798,948 C838,928 824,1001 853,948 C882,895 849,655 829,519 C809,383 751,292 673,241 C595,190 506.360629,190.997158 487,190.997158 Z" id="Path" stroke="#000000" stroke-width="12" fill="#000000"></path>
    </g>
</svg>