<?xml version="1.0" encoding="UTF-8"?>
<svg width="1080px" height="1080px" viewBox="0 0 1080 1080" version="1.1" xmlns="http://www.w3.org/2000/svg" xmlns:xlink="http://www.w3.org/1999/xlink">
    <!-- Generator: Sketch 63.1 (92452) - https://sketch.com -->
    <title>Hairstyle/ 55</title>
    <desc>Created with Sketch.</desc>
    <g id="Hairstyle/-55" stroke="none" stroke-width="1" fill="none" fill-rule="evenodd" stroke-linecap="round" stroke-linejoin="round">
        <path d="M487,190.995746 C449.0493,190.995746 402.91937,208.063891 358.282329,237.331188 C297.062726,277.471221 262.651254,325.552654 232,399 C201.661355,471.698262 196,540 214,639 C232,738 371.10908,800.583946 359,788 C341.351402,769.6593 325.684735,746.6593 312,719 C258.666667,709.666667 232,683 232,639 C232,573 286,566 311,566 C327.666667,566 343.666667,581 359,611 C372.333333,598.333333 380.333333,577.333333 383,548 C384.869473,527.435795 460.693498,517.614633 525,477 C544,465 583.851682,434.504971 600,422 C603.930578,418.95623 489.739288,533.180477 493,530 C496.132975,526.944118 533.04025,516.970728 588,477 C602.666667,466.333333 621.333333,445.333333 644,414 C672.883134,431.2435 694.216467,446.910167 708,461 C753,507 764,568 764,639 C764,675.670431 758.251817,722.763272 741,804 C732.365238,844.660051 780.031905,896.326718 884,959 C859.893691,841.552601 847.560358,767.885935 847,738 C845.177155,640.780984 860.6882,623.079761 847,530 C827,394 751,292 673,241 C595,190 506.360629,190.995746 487,190.995746 Z" id="Path" stroke="#000000" stroke-width="12" fill="#000000"></path>
    </g>
</svg>