<?xml version="1.0" encoding="UTF-8"?>
<svg width="1080px" height="1080px" viewBox="0 0 1080 1080" version="1.1" xmlns="http://www.w3.org/2000/svg" xmlns:xlink="http://www.w3.org/1999/xlink">
    <!-- Generator: Sketch 63.1 (92452) - https://sketch.com -->
    <title>Hairstyle/ 56</title>
    <desc>Created with Sketch.</desc>
    <g id="Hairstyle/-56" stroke="none" stroke-width="1" fill="none" fill-rule="evenodd" stroke-linecap="round" stroke-linejoin="round">
        <path d="M459,252 C314,281 243.651254,409.552654 213,483 C182.348746,556.447346 182,710 182,836 C182,920 142,1001.33333 62,1080 L352,1080 C418.032341,937.795781 440.699007,856.462447 420,836 C399.300993,815.537553 363.300993,776.537553 312,719 C258.666667,709.666667 232,683 232,639 C232,573 286,566 311,566 C336,566 380,447 487,399 C594,351 687.324701,439.86525 708,461 C753,507 764,568 764,639 C764,675.670431 758.251817,722.763272 741,804 C737.944113,818.389804 705.277446,910.389804 643,1080 L781,1080 C778.706876,1059.29977 778.706876,1045.29977 781,1038 C793.309871,998.813636 813.378094,973.04439 819,945 C833.587662,872.230709 807.322116,755.179655 807,738 C805.177155,640.780984 832.6882,633.079761 819,540 C813.342867,501.531494 808.534843,437.47656 758,374 C724.310104,331.682293 692.976771,312.34896 664,316 C624,254 555.666667,232.666667 459,252 Z" id="Path" stroke="#000000" stroke-width="12" fill="#000000"></path>
    </g>
</svg>