<?xml version="1.0" encoding="UTF-8"?>
<svg width="1080px" height="1080px" viewBox="0 0 1080 1080" version="1.1" xmlns="http://www.w3.org/2000/svg" xmlns:xlink="http://www.w3.org/1999/xlink">
    <!-- Generator: Sketch 63.1 (92452) - https://sketch.com -->
    <title>Hairstyle/ 57</title>
    <desc>Created with Sketch.</desc>
    <g id="Hairstyle/-57" stroke="none" stroke-width="1" fill="none" fill-rule="evenodd" stroke-linecap="round" stroke-linejoin="round">
        <path d="M487,190.994902 L490.413695,190.994902 C515.197968,191.026161 598.9,192.55 673,241 C751,292 798,423 798,561 C798,699 771,758.333333 721,873 C749.666667,732.80903 764,654.80903 764,639 C764,568 753,507 708,461 C695.0217,447.733293 675.34995,433.068608 648.984749,417.005946 C627.277265,462.471079 602.281891,493.801553 574,511 C500,556 451,526 417,561 C394.333333,584.333333 375,610.666667 359,640 L359,611 L358.0792,609.218 C343.0264,580.406 327.333333,566 311,566 C286,566 232,573 232,639 C232,683 258.666667,709.666667 312,719 C325.684735,746.6593 341.351402,769.6593 359,788 C371.10908,800.583946 232,738 214,639 C196,540 201.661355,471.698262 232,399 C262.651254,325.552654 297.062726,277.471221 358.282329,237.331188 C402.91937,208.063891 449.0493,190.994902 487,190.994902 Z" id="Path" stroke="#000000" stroke-width="12" fill="#000000"></path>
    </g>
</svg>