<?xml version="1.0" encoding="UTF-8"?>
<svg width="1080px" height="1080px" viewBox="0 0 1080 1080" version="1.1" xmlns="http://www.w3.org/2000/svg" xmlns:xlink="http://www.w3.org/1999/xlink">
    <!-- Generator: Sketch 63.1 (92452) - https://sketch.com -->
    <title>Hairstyle/ 58</title>
    <desc>Created with Sketch.</desc>
    <g id="Hairstyle/-58" stroke="none" stroke-width="1" fill="none" fill-rule="evenodd" stroke-linecap="round" stroke-linejoin="round">
        <path d="M487,190.994902 L492.801508,190.994902 L494.509806,191.008343 C523.444296,191.291233 602.56054,194.94343 673,241 C751,292 798,423 798,561 C798,699 771,758.333333 721,873 L724.3712,856.4756 L727.478098,841.173865 C751.826033,720.960891 764,653.569602 764,639 C764,568 753,507 708,461 C695.0217,447.733293 675.34995,433.068608 648.984749,417.005946 C627.277265,462.471079 602.281891,493.801553 574,511 C500,556 451,526 417,561 C411.432252,566.731505 406.065627,572.644022 400.900126,578.737549 L401.070355,583.057575 L401.243546,587.259724 C404.123789,655.640355 409.525788,711.55238 417.449275,755 C428.750182,816.967346 456.933757,899.30068 502,1002 L496.701424,998.514191 C471.555958,981.936467 442.273505,953.379147 422,939 C428.080572,958.957855 432.747238,972.957855 436,981 C437.953245,985.829214 441.619912,995.829214 447,1011 C384.917435,952.311934 345.584102,908.645267 329,880 C312.415898,851.354733 290.082565,823.688066 262,797 C256.013605,811.3613 253.428571,824.777778 242,847 C230,870.333333 198.666667,876 176,904 L177.554236,901.081329 C202.478392,854.153058 222.733479,831.008154 228,809 C236,775.666667 236,739 228,699 C216,639 203,623 199,579 C195,535 201.661355,471.698262 232,399 C262.651254,325.552654 297.062726,277.471221 358.282329,237.331188 C402.91937,208.063891 449.0493,190.994902 487,190.994902 Z" id="Path" stroke="#000000" stroke-width="12" fill="#000000"></path>
    </g>
</svg>