<?xml version="1.0" encoding="UTF-8"?>
<svg width="1080px" height="1080px" viewBox="0 0 1080 1080" version="1.1" xmlns="http://www.w3.org/2000/svg" xmlns:xlink="http://www.w3.org/1999/xlink">
    <!-- Generator: Sketch 63.1 (92452) - https://sketch.com -->
    <title>Beard/ 11</title>
    <desc>Created with Sketch.</desc>
    <g id="Beard/-11" stroke="none" stroke-width="1" fill="none" fill-rule="evenodd" stroke-linecap="round" stroke-linejoin="round">
        <path d="M678.921093,715.754555 C694.162093,721.53773 703.261971,732.754555 709.667465,745.754555 C716.072959,758.754555 727.879886,802.754555 724.677139,821.754555 C721.474392,840.754555 691.161541,873 670,883 C653.946008,890.5864 583.894587,908.877192 557.677139,902.754555 C517.898942,893.465036 475.677139,877.754555 470.677139,858.754555 C465.677139,839.754555 489.677139,758.754555 499.677139,745.754555 C509.568443,732.895859 523.575165,721.781785 546.904651,715.945058 L547.677139,715.754555 C563.066863,712.013997 604.034908,706.259982 624.356024,706.007268 C644.677139,705.754555 669.42754,712.15224 678.921093,715.754555 Z M624,722 C598.858739,722.313355 550.450606,733.783488 539.677139,740.754555 C522.677139,751.754555 517.677139,791.754555 522.677139,806.754555 C527.677139,821.754555 553.677139,832.754555 564.677139,832.754555 C575.677139,832.754555 600.677139,813.754555 605.677139,810.754555 C608.949866,808.790918 616.078461,807.469927 627.062924,806.79158 L627.677139,806.754555 C634.936699,807.421221 639.769226,809.754555 643,813 C646.230774,816.245445 656,833 669,833 C682,833 691.732081,821.754555 694.934828,806.754555 C698.137575,791.754555 694.934828,751.754555 684.045488,740.754555 C676.858523,733.494555 649.141261,721.686645 624,722 Z" id="Shape" stroke="#000000" stroke-width="12" fill="#000000"></path>
    </g>
</svg>