<?xml version="1.0" encoding="UTF-8"?>
<svg width="1080px" height="1080px" viewBox="0 0 1080 1080" version="1.1" xmlns="http://www.w3.org/2000/svg" xmlns:xlink="http://www.w3.org/1999/xlink">
    <!-- Generator: Sketch 63.1 (92452) - https://sketch.com -->
    <title>Beard/ 12</title>
    <desc>Created with Sketch.</desc>
    <g id="Beard/-12" stroke="none" stroke-width="1" fill="none" fill-rule="evenodd" stroke-linecap="round" stroke-linejoin="round">
        <g id="Group" transform="translate(462.000000, 713.000000)" stroke="#000000">
            <g transform="translate(68.000000, 0.000000)" id="Path" stroke-width="20">
                <line x1="94.1874169" y1="-0.123681782" x2="93.3247577" y2="16.8678678" transform="translate(93.756087, 8.372093) rotate(16.000000) translate(-93.756087, -8.372093) "></line>
                <line x1="64.6746698" y1="-0.123681782" x2="63.8120106" y2="16.8678678" transform="translate(64.243340, 8.372093) rotate(16.000000) translate(-64.243340, -8.372093) "></line>
                <line x1="35.1619227" y1="8.24841124" x2="34.2992634" y2="25.2399609" transform="translate(34.730593, 16.744186) rotate(16.000000) translate(-34.730593, -16.744186) "></line>
                <line x1="5.18416681" y1="15.6936945" x2="4.14897569" y2="36.083554" transform="translate(4.666571, 25.888624) rotate(16.000000) translate(-4.666571, -25.888624) "></line>
                <line x1="123.675242" y1="-0.123681782" x2="122.812583" y2="16.8678678" transform="translate(123.243913, 8.372093) scale(-1, 1) rotate(16.000000) translate(-123.243913, -8.372093) "></line>
                <line x1="153.187989" y1="-0.123681782" x2="152.32533" y2="16.8678678" transform="translate(152.756660, 8.372093) scale(-1, 1) rotate(16.000000) translate(-152.756660, -8.372093) "></line>
                <line x1="182.700737" y1="8.24841124" x2="181.838077" y2="25.2399609" transform="translate(182.269407, 16.744186) scale(-1, 1) rotate(16.000000) translate(-182.269407, -16.744186) "></line>
            </g>
            <path d="M135,76 C144.011441,77.3763441 152.793663,78.0645161 161.346667,78.0645161 C169.899671,78.0645161 178.450782,77.3763441 187,76 C180.333333,80.6666667 175.915556,84.483871 173.746667,87.4516129 C170.493333,91.9032258 166.2,95 161,95 C155.8,95 152.893333,91.9032258 148.946667,87.4516129 C146.315556,84.483871 141.666667,80.6666667 135,76 Z" id="Path" stroke-width="12" fill="#000000"></path>
            <path d="M0,114 C6.87516753,123.539875 11.8313719,129.873208 14.8686131,133 C25.8384835,144.293308 33.3661704,148.334241 35.0474453,150 C34.8463007,148.731354 24.8152346,111.29441 27.1876467,106.906733 C34.8716928,117.794352 39.9760821,124.803111 42.5008147,127.933013 L43.2673631,128.875584 C47.1536714,133.617984 53.0748078,140.329709 61.0307721,149.01076 C65.3926747,151.217447 69.7913533,153.101048 74.2270583,154.663537 C73.859888,154.110965 73.544267,153.5577 73.2810219,153 C72.1403465,150.583415 71.4323173,146.916748 71.1569343,142 L73.593411,143.172027 C82.3796589,147.378825 89.5434089,150.588674 95.0846611,152.801574 L96.422917,153.329108 C101.294465,155.225292 108.161019,157.652567 117.022582,160.610933 L119.311443,160.120191 C126.277013,158.616025 131.792903,157.322663 135.861058,156.240012 L136.913124,155.956276 C143.161988,154.249513 151.367522,151.639087 161.529726,148.124999 C160.972726,151.09366 160.315397,153.578556 159.557737,155.579687 C163.576498,154.642061 167.592496,153.576414 171.605432,152.382534 L174.880463,150.26314 C182.48987,145.317387 188.2945,141.38529 192.294989,138.465325 L193.157564,137.831162 C198.272376,134.044565 204.841861,128.729945 212.866017,121.887303 C213.95152,126.703627 214.825247,140.212301 214.532847,141 C237.376467,129.084116 268.355245,106.318484 291,86 C290.026756,93.4045465 271.70775,151.709886 212.408759,183 C184.032066,197.973441 147.17518,200 96.6459854,200 C33.7389498,200 1.52362133,171.333333 0,114 Z" id="Path" stroke-width="12" fill="#000000"></path>
        </g>
    </g>
</svg>