<?xml version="1.0" encoding="UTF-8"?>
<svg width="1080px" height="1080px" viewBox="0 0 1080 1080" version="1.1" xmlns="http://www.w3.org/2000/svg" xmlns:xlink="http://www.w3.org/1999/xlink">
    <!-- Generator: Sketch 63.1 (92452) - https://sketch.com -->
    <title>Beard/ 13</title>
    <desc>Created with Sketch.</desc>
    <g id="Beard/-13" stroke="none" stroke-width="1" fill="none" fill-rule="evenodd" stroke-linecap="round" stroke-linejoin="round">
        <path d="M369.784211,644 C393.129114,725.816386 419.795781,770.483053 449.784211,778 C494.766855,789.275421 498.784211,731 532.784211,712 C566.784211,693 623.784211,715 659.784211,715 C695.784211,715 758.702636,700.707211 771.784211,705 C784.865785,709.292789 783.106231,837.470029 724.784211,899 C693.941246,926.615343 681.398546,926.570793 623.784211,927 C566.169875,927.429207 482.097675,914.714159 411.784211,857 C364.908568,818.523894 347.575235,747.523894 359.784211,644 L369.784211,644 Z M550.784211,724 C533.514413,736.439559 501.514911,784.31688 518.784211,798 C536.053511,811.68312 595.516685,796 633.784211,796 C672.051737,796 713.027611,804.219779 718.784211,798 C724.54081,791.780221 721.784211,743 705.784211,731 C689.784211,719 656.693631,736 638.784211,736 C620.874791,736 568.054008,711.560441 550.784211,724 Z" id="Shape" stroke="#000000" stroke-width="12" fill="#000000"></path>
    </g>
</svg>