<?xml version="1.0" encoding="UTF-8"?>
<svg width="1080px" height="1080px" viewBox="0 0 1080 1080" version="1.1" xmlns="http://www.w3.org/2000/svg" xmlns:xlink="http://www.w3.org/1999/xlink">
    <!-- Generator: Sketch 63.1 (92452) - https://sketch.com -->
    <title>Beard/ 14</title>
    <desc>Created with Sketch.</desc>
    <g id="Beard/-14" stroke="none" stroke-width="1" fill="none" fill-rule="evenodd" stroke-linecap="round" stroke-linejoin="round">
        <g id="Group" transform="translate(356.000000, 644.000000)" fill="#000000" stroke="#000000" stroke-width="12">
            <path d="M13.7842106,0 C38.4508773,99.3333333 62.1894738,156 85,170 L86.9079246,171.166793 C117.533703,189.822671 122.186127,188.825573 150.716369,172.949954 C155.244273,180.655789 161.338581,188.428915 169.237834,196 L170.908964,197.59686 C197.910013,223.316541 210.657911,231.363083 232.155812,233.871358 L244,206 L272,206 L285.870913,233.739358 C315.383431,229.575763 323.896116,215.137372 341.530084,191 C347.248306,183.172899 351.743097,174.580072 354.871198,165.932566 L359.566909,166.368889 C374.17487,167.764679 384.280094,169.107448 387,170 C400.081575,174.292789 367.784211,225 351,243 C334.215789,261 304.215789,281 259,281 C213.784211,281 126.097675,270.714159 55.7842106,213 C8.90856796,174.523894 -8.42476537,103.523894 3.78421065,0 L13.7842106,0 Z" id="Path"></path>
            <path d="M252.275933,77.0238414 C264.489619,76.3881882 257.298004,88.6585564 252.275933,90.4956167 C250.833396,91.0232927 238.814901,91.5536326 229.174404,92.9450304 C205.25231,96.3976686 171.345775,101.778548 169.913961,100.905625 C167.905133,99.680918 168.909547,97.2315043 175.940447,91.7203235 C182.971347,86.2091427 240.062247,77.6594945 252.275933,77.0238414 Z" id="Path"></path>
            <path d="M364.275933,77.0238414 C376.489619,76.3881882 369.298004,88.6585564 364.275933,90.4956167 C362.833396,91.0232927 350.814901,91.5536326 341.174404,92.9450304 C317.25231,96.3976686 283.345775,101.778548 281.913961,100.905625 C279.905133,99.680918 280.909547,97.2315043 287.940447,91.7203235 C294.971347,86.2091427 352.062247,77.6594945 364.275933,77.0238414 Z" id="Path" transform="translate(326.000000, 89.000000) scale(-1, 1) translate(-326.000000, -89.000000) "></path>
        </g>
    </g>
</svg>