<?xml version="1.0" encoding="UTF-8"?>
<svg width="1080px" height="1080px" viewBox="0 0 1080 1080" version="1.1" xmlns="http://www.w3.org/2000/svg" xmlns:xlink="http://www.w3.org/1999/xlink">
    <!-- Generator: Sketch 63.1 (92452) - https://sketch.com -->
    <title>Beard/ 15</title>
    <desc>Created with Sketch.</desc>
    <g id="Beard/-15" stroke="none" stroke-width="1" fill="none" fill-rule="evenodd" stroke-linecap="round" stroke-linejoin="round">
        <g id="Group" transform="translate(356.000000, 644.000000)" fill="#000000" stroke="#000000" stroke-width="12">
            <path d="M13.7842106,0 C38.4508773,99.3333333 62.1894738,156 85,170 C115.832051,188.923225 121.141914,181.050716 146.768088,165.406434 C151.446424,175.543192 158.751812,185.949612 169.237834,196 C208.884483,233.999561 218.134958,235 265.22923,235 C312.323503,235 320.343319,220.000439 341.530084,191 C349.396281,180.232751 354.947287,168.016459 357.810162,156.202141 C373.365459,157.657953 384.172713,159.072211 387,160 C400.081575,164.292789 367.784211,225 351,243 C334.215789,261 304.215789,281 259,281 C213.784211,281 126.097675,270.714159 55.7842106,213 C8.90856796,174.523894 -8.42476537,103.523894 3.78421065,0 L13.7842106,0 Z" id="Combined-Shape"></path>
            <path d="M342.059553,85.7203235 C344.041889,91.0525087 344.384051,94.1142758 343.086039,94.9056249 C341.740134,95.7261724 312.999691,78.8320025 260,79 C207.000309,79.1679975 178.188276,95.6825262 176.913961,94.9056249 C174.905133,93.680918 177,88 178.940447,85.7203235 C185.03353,80.9442521 215.310036,70.7104933 246.246192,68.4491683 C250.205361,68.1597669 254.000293,72.0016982 260.000147,72.0008491 C266,72 270.180225,68.1006582 273.327355,68.2864443 C305.137741,70.1643218 335.805431,80.8180213 342.059553,85.7203235 Z" id="Path"></path>
            <path d="M235,223 C243.962967,225 252.2963,226 260,226 C267.7037,226 275.370367,225 283,223 L292,246 L227,246 L235,223 Z" id="Path"></path>
        </g>
    </g>
</svg>