<?xml version="1.0" encoding="UTF-8"?>
<svg width="1080px" height="1080px" viewBox="0 0 1080 1080" version="1.1" xmlns="http://www.w3.org/2000/svg" xmlns:xlink="http://www.w3.org/1999/xlink">
    <!-- Generator: Sketch 63.1 (92452) - https://sketch.com -->
    <title>Beard/ 16</title>
    <desc>Created with Sketch.</desc>
    <g id="Beard/-16" stroke="none" stroke-width="1" fill="none" fill-rule="evenodd" stroke-linecap="round" stroke-linejoin="round">
        <path d="M679,848 L692,872 L690.233341,873.595627 C661.49346,899.412319 638.41568,913.213776 621,915 C603.58432,916.786224 577.305207,911.699815 542.162659,899.740773 L540,899 L547,872 C571,880 595,882 619,878 C642.7,874.05 662.499375,864.249063 678.398125,848.597188 L679,848 Z M645,789 C639,793 634.915556,796.483871 632.746667,799.451613 L632.158203,800.247527 C629.316406,804.036038 627.875,805 623,805 C618.46383,805 617.194791,804.165379 614.324784,800.997163 L612.946667,799.451613 C610.315556,796.483871 606.333333,793 601,789 C607.113663,790.333333 614.446996,791 623,791 C631.553004,791 638.886337,790.333333 645,789 Z" id="Shape" stroke="#000000" stroke-width="12" fill="#000000"></path>
    </g>
</svg>