<?xml version="1.0" encoding="UTF-8"?>
<svg width="1080px" height="1080px" viewBox="0 0 1080 1080" version="1.1" xmlns="http://www.w3.org/2000/svg" xmlns:xlink="http://www.w3.org/1999/xlink">
    <!-- Generator: Sketch 63.1 (92452) - https://sketch.com -->
    <title>Eyes/ 13</title>
    <desc>Created with Sketch.</desc>
    <g id="Eyes/-13" stroke="none" stroke-width="1" fill="none" fill-rule="evenodd" stroke-linecap="round" stroke-linejoin="round">
        <g id="Group" transform="translate(534.000000, 520.000000)" stroke="#000000">
            <path d="M0,4.53133369 C19.0458061,14.2653098 36.4354551,18.2931619 52.1689471,16.6148902 C67.902439,14.9366185 72.4568709,9.39832173 65.8322427,0 C75.769185,9.73397608 73.6989887,16.1114087 59.6216538,19.1322978 C45.5443189,22.1531869 25.6704343,17.2861989 0,4.53133369 Z" id="Path" stroke-width="6" fill="#000000"></path>
            <line x1="6" y1="9" x2="2" y2="17" id="Path" stroke-width="4"></line>
            <line x1="20" y1="14" x2="17" y2="23" id="Path" stroke-width="4"></line>
            <line x1="34" y1="17" x2="32" y2="27" id="Path" stroke-width="4"></line>
            <line x1="48" y1="19" x2="47" y2="29" id="Path" stroke-width="4"></line>
            <line x1="60" y1="18" x2="62" y2="27" id="Path" stroke-width="4"></line>
            <line x1="70" y1="14" x2="74" y2="20" id="Path" stroke-width="4"></line>
        </g>
        <g id="Group" transform="translate(672.000000, 520.000000)" stroke="#000000">
            <path d="M0,4.53133369 C19.0458061,14.2653098 36.4354551,18.2931619 52.1689471,16.6148902 C67.902439,14.9366185 72.4568709,9.39832173 65.8322427,0 C75.769185,9.73397608 73.6989887,16.1114087 59.6216538,19.1322978 C45.5443189,22.1531869 25.6704343,17.2861989 0,4.53133369 Z" id="Path" stroke-width="6" fill="#000000"></path>
            <line x1="6" y1="9" x2="2" y2="17" id="Path" stroke-width="4"></line>
            <line x1="20" y1="14" x2="17" y2="23" id="Path" stroke-width="4"></line>
            <line x1="34" y1="17" x2="32" y2="27" id="Path" stroke-width="4"></line>
            <line x1="48" y1="19" x2="47" y2="29" id="Path" stroke-width="4"></line>
            <line x1="60" y1="18" x2="62" y2="27" id="Path" stroke-width="4"></line>
            <line x1="70" y1="14" x2="74" y2="20" id="Path" stroke-width="4"></line>
        </g>
    </g>
</svg>