<?xml version="1.0" encoding="UTF-8"?>
<svg width="1080px" height="1080px" viewBox="0 0 1080 1080" version="1.1" xmlns="http://www.w3.org/2000/svg" xmlns:xlink="http://www.w3.org/1999/xlink">
    <!-- Generator: Sketch 63.1 (92452) - https://sketch.com -->
    <title>Details/ 12</title>
    <desc>Created with Sketch.</desc>
    <g id="Details/-12" stroke="none" stroke-width="1" fill="none" fill-rule="evenodd" stroke-linecap="round" stroke-linejoin="round">
        <g id="Group" transform="translate(486.500000, 489.500000) rotate(64.000000) translate(-486.500000, -489.500000) translate(450.000000, 448.000000)" fill="#000000" stroke="#000000" stroke-width="2">
            <path d="M8,0 C13.7407968,20.2338183 20.6741301,35.5387829 28.8,45.9148936 C36.9258699,56.2910044 51.6592032,68.6527065 73,83 C53.4939444,66.3922675 39.9522778,53.2506008 32.375,43.575 C24.7977222,33.8993992 16.6727222,19.3743992 8,0 Z" id="Path"></path>
            <path d="M0,33 C6.33963463,43.1777759 11.5436766,50.3016052 15.612126,54.3714878 C21.7148001,60.4763116 32.0337697,68.2193395 33.8262731,66.838189 C35.6187764,65.4570384 23.0891839,58.3853346 16.9998706,53.0266833 C12.9403284,49.454249 7.27370483,42.7786879 0,33 Z" id="Path"></path>
        </g>
    </g>
</svg>