<?xml version="1.0" encoding="UTF-8"?>
<svg width="1080px" height="1080px" viewBox="0 0 1080 1080" version="1.1" xmlns="http://www.w3.org/2000/svg" xmlns:xlink="http://www.w3.org/1999/xlink">
    <!-- Generator: Sketch 63.1 (92452) - https://sketch.com -->
    <title>Accessories/ 11</title>
    <desc>Created with Sketch.</desc>
    <g id="Accessories/-11" stroke="none" stroke-width="1" fill="none" fill-rule="evenodd" stroke-linecap="round" stroke-linejoin="round">
        <path d="M619.894049,96.0012524 C621.918782,93.4716292 622.749795,90.3273871 622.315358,86.7461494 C621.950516,83.7386178 620.637298,80.3623855 618.371883,76.884486 C614.455253,70.8716136 607.608271,64.4101255 598.615878,59.0489824 C584.920052,50.8837163 566.247973,45.2384146 545.845199,47.5042313 C529.838711,49.2818214 517.317547,56.0003094 508.213136,67.5414671 C499.666016,78.3761796 494.133575,93.6076263 491.829527,113.336353 C467.997431,127.914703 453.572575,147.427756 448.394906,171.769535 C443.258084,195.919282 446.407319,229.641587 458.119212,272.948174 C454.041135,300.335505 454.122052,324.009831 458.284099,343.977449 C461.469255,359.258387 470.815293,373.009413 481.117363,381.761698 C486.981993,386.744087 493.164829,390.100674 498.707985,391.383545 C504.906682,392.818131 510.35031,391.743938 514.337844,388.156992 C518.496356,384.416243 519.851708,379.545365 519.280915,373.884277 C518.655524,367.6817 515.500215,360.421481 512.250028,353.170286 C509.096693,346.135168 505.77018,339.110201 505.77018,333.273726 C505.77018,328.671935 506.399268,324.927297 507.820663,322.08596 C508.354812,321.018206 509.007637,320.098073 509.782951,319.329874 C516.800514,334.825572 527.473389,346.794457 541.77705,355.255564 C550.179761,360.226057 557.078318,362.230716 562.406955,361.767593 C565.640523,361.486557 568.402013,360.359785 570.715475,358.444009 C571.881355,357.478545 572.938678,356.300729 573.871227,354.898028 C622.70564,383.049013 656.710562,400.963764 675.870644,408.669278 C701.200328,418.85599 722.113436,424.472343 737.945844,426.938471 C747.889743,428.487377 755.886492,428.796919 761.782583,428.242847 C770.395997,427.433421 774.698189,424.493863 776.156369,421.578994 C777.547034,418.799084 777.579908,415.984555 776.251113,413.03354 C775.231638,410.769467 773.24857,408.337018 770.230111,405.774183 C764.172321,400.63079 753.550703,394.552988 739.588869,386.623568 C738.887127,386.225024 738.176828,385.82162 737.458139,385.413225 C734.517957,383.742468 730.785081,381.529201 726.259402,378.773613 C746.952931,385.655708 763.792832,390.335274 776.773388,392.819642 C786.982014,394.773487 794.907591,395.369347 800.550975,394.71852 C803.891145,394.333313 806.530293,393.502485 808.515192,392.350552 C811.047721,390.880802 812.65909,388.882115 813.470667,386.448628 C814.326501,383.88244 814.168653,381.45094 813.008419,379.014936 C812.089531,377.085655 810.429386,375.090809 807.886125,373.026127 C803.08263,369.126532 794.710387,364.644757 782.904029,358.394367 C776.265625,354.879938 768.516001,350.777485 759.690559,345.848641 C751.550297,341.302458 738.17573,332.686206 719.561109,320.009584 C743.640495,305.989342 757.422881,291.698979 761.578155,277.5475 C765.97941,262.558292 762.128637,238.382172 749.26734,204.949976 C747.171548,191.238617 744.851459,180.839468 742.345097,173.741737 C740.949351,169.789144 739.461579,166.787478 737.951216,164.697274 C735.767512,161.675228 733.382838,160.316143 731.101046,159.990339 C727.547942,159.483012 722.405554,161.349266 715.837335,167.126345 C710.861704,171.502663 704.843595,178.114152 697.805419,186.983084 C688.366553,186.282619 681.323538,186.380538 676.668333,187.201625 C672.101329,188.007156 665.949762,190.18496 658.233756,193.807826 C635.886958,174.357732 621.405427,167.011814 614.56495,168.721059 C611.969903,169.369489 609.69267,171.05171 607.960178,174.102637 C606.689872,176.33965 605.694095,179.435264 605.087817,183.434654 C605.058958,183.625027 605.030931,183.817667 605.00374,184.012573 C596.067962,157.081995 586.313798,139.547825 576.012838,131.182571 C563.14139,120.729863 548.370234,112.932354 531.691527,107.804889 C531.732672,98.9603085 533.572184,92.122388 537.575655,87.4540578 C541.865424,82.4518852 548.569127,80.1985573 557.415833,80.1985573 C572.120266,80.1985573 583.813209,87.4253452 593.035458,92.9852876 C599.006047,96.5848577 604.107474,99.5066887 608.344406,100.277416 C610.66152,100.698915 612.789395,100.562562 614.748634,99.8408788 C616.596479,99.1602274 618.331083,97.9539619 619.894049,96.0012524 Z" id="Combined-Shape" stroke="#FFFFFF" stroke-width="8" fill="#000000"></path>
    </g>
</svg>