<?xml version="1.0" encoding="UTF-8"?>
<svg width="1080px" height="1080px" viewBox="0 0 1080 1080" version="1.1" xmlns="http://www.w3.org/2000/svg" xmlns:xlink="http://www.w3.org/1999/xlink">
    <!-- Generator: Sketch 63.1 (92452) - https://sketch.com -->
    <title>Accessories/ 12</title>
    <desc>Created with Sketch.</desc>
    <g id="Accessories/-12" stroke="none" stroke-width="1" fill="none" fill-rule="evenodd" stroke-linecap="round" stroke-linejoin="round">
        <g id="Group" transform="translate(583.158878, 357.517760) scale(-1, 1) rotate(-8.000000) translate(-583.158878, -357.517760) translate(281.658878, 200.517760)" fill="#FFFFFF" stroke="#000000" stroke-width="12">
            <path d="M24.5631859,206.214832 C10.1922968,209.827919 1.43644113,214.20201 -2.39792851,218.470832 C-5.56414024,221.995791 -6.35878075,225.669934 -5.50236074,229.347552 C-4.8326253,232.223514 -2.90423004,235.389203 0.920082499,238.517255 C13.1412823,248.513441 38.8542646,248.843582 79.8933897,235.393486 L24.5631859,206.214832 Z" id="Path"></path>
            <path d="M158.698639,164.775452 L-13.8121802,218.034991 C23.0564646,221.933457 47.7243311,227.497345 59.6709203,235.768054 C114.722119,273.880395 177.286108,314.085337 223.78303,318.831404 C283.337502,324.910291 355.90579,306.210066 441.427071,262.202071 L158.698639,164.775452 Z" id="Path"></path>
            <path d="M417.680261,9.28029052 C345.188389,-5.24670837 285.19326,1.66081134 237.576922,29.4767303 C189.957732,57.2943149 154.529797,106.131887 131.693455,176.350028 C131.169379,177.961479 130.657289,179.567725 130.157179,181.168766 C131.629727,181.953652 133.117313,182.735933 134.614962,183.520519 C181.175665,207.912649 220.367573,225.575852 252.179222,236.537966 C283.903438,247.469951 334.346107,260.704011 403.942249,276.294333 C458.136608,284.382118 498.550201,287.402592 525.183088,285.458296 C552.448188,283.467846 578.077969,275.437797 602.068997,261.357039 C602.89486,260.872325 603.71541,260.38242 604.530647,259.887324 C604.680174,258.954449 604.824548,258.014448 604.965818,257.070784 C615.1622,188.960699 604.31343,134.357111 573.039556,93.0621092 C541.883499,51.9226775 490.225704,23.8180246 417.680261,9.28029052 Z" id="Path"></path>
            <ellipse id="Oval" transform="translate(439.692465, 20.646894) rotate(-345.000000) translate(-439.692465, -20.646894) " cx="439.692465" cy="20.6468939" rx="31.9206138" ry="19.7184356"></ellipse>
        </g>
    </g>
</svg>