<?xml version="1.0" encoding="UTF-8"?>
<svg width="1080px" height="1080px" viewBox="0 0 1080 1080" version="1.1" xmlns="http://www.w3.org/2000/svg" xmlns:xlink="http://www.w3.org/1999/xlink">
    <!-- Generator: Sketch 63.1 (92452) - https://sketch.com -->
    <title>Accessories/ 13</title>
    <desc>Created with Sketch.</desc>
    <g id="Accessories/-13" stroke="none" stroke-width="1" fill="none" fill-rule="evenodd" stroke-linecap="round" stroke-linejoin="round">
        <g id="Group" transform="translate(267.460676, 167.540524)" fill="#000000" stroke="#FFFFFF" stroke-width="12">
            <path d="M565.154204,276.00104 C550.783315,279.614127 542.02746,283.988218 538.19309,288.25704 C535.026878,291.781999 534.232238,295.456142 535.088658,299.13376 C535.758393,302.009722 537.686788,305.175411 541.511101,308.303463 C553.732301,318.299649 579.445283,318.62979 620.484408,305.179694 L565.154204,276.00104 Z" id="Path" transform="translate(572.763266, 296.064024) scale(-1, 1) rotate(-8.000000) translate(-572.763266, -296.064024) "></path>
            <path d="M322.908264,208.242509 L150.397444,261.502048 C187.266089,265.400514 211.933956,270.964402 223.880545,279.235111 C278.931744,317.347452 341.495733,357.552394 387.992655,362.298461 C447.547126,368.377348 520.115415,349.677123 605.636696,305.669128 L322.908264,208.242509 Z" id="Path" transform="translate(384.357027, 285.986838) scale(-1, 1) rotate(-8.000000) translate(-384.357027, -285.986838) "></path>
            <path d="M297.280971,32.8455535 C224.789099,18.3185546 164.79397,25.2260743 117.177631,53.0419932 C69.558442,80.8595779 34.1305071,129.69715 11.2941647,199.915291 C10.7700884,201.526742 10.2579988,203.132988 9.75788933,204.734029 C11.230437,205.518915 12.7180227,206.301196 14.2156723,207.085782 C60.7763748,231.477912 99.9682829,249.141115 131.779932,260.103229 C163.504147,271.035214 213.946817,284.269274 283.542959,299.859596 C337.737318,307.947381 378.150911,310.967855 404.783798,309.023559 C432.048898,307.033109 457.678679,299.00306 481.669707,284.922302 C482.49557,284.437588 483.31612,283.947683 484.131357,283.452587 C484.280883,282.519712 484.425258,281.579711 484.566528,280.636047 C494.76291,212.525962 483.91414,157.922374 452.640265,116.627372 C421.484209,75.4879404 369.826414,47.3832876 297.280971,32.8455535 Z" id="Path" transform="translate(249.640888, 167.517940) scale(-1, 1) rotate(-8.000000) translate(-249.640888, -167.517940) "></path>
            <ellipse id="Oval" transform="translate(197.827301, 35.718436) scale(-1, 1) rotate(-353.000000) translate(-197.827301, -35.718436) " cx="197.827301" cy="35.7184356" rx="31.9206138" ry="19.7184356"></ellipse>
        </g>
    </g>
</svg>