<?xml version="1.0" encoding="UTF-8"?>
<svg width="1080px" height="1080px" viewBox="0 0 1080 1080" version="1.1" xmlns="http://www.w3.org/2000/svg" xmlns:xlink="http://www.w3.org/1999/xlink">
    <!-- Generator: Sketch 63.1 (92452) - https://sketch.com -->
    <title>Accessories/ 15</title>
    <desc>Created with Sketch.</desc>
    <g id="Accessories/-15" stroke="none" stroke-width="1" fill="none" fill-rule="evenodd">
        <g id="Group" transform="translate(266.000000, 694.000000)">
            <path d="M34.9663599,7.38242277 C32.6629959,-2.50821373 20.9144213,-0.811841628 16.5394478,2.98658433 C1.50600636,16.0388724 -3.03914629,35.9553727 8.47767376,50.2418476 C19.9944938,64.5283225 40.7247699,61.2314437 48.786544,52.4397668 C54.16106,46.5786489 57.232212,40.717531 58,34.856413 L39.5730879,34.856413 C36.5019359,39.9848912 32.2791019,41.4501707 26.9045858,39.2522515 C22.3817402,37.4026246 21.4785822,28.2177135 24.6012218,21.6688977 C27.7523638,15.0603066 36.1232741,12.3502081 34.9663599,7.38242277 Z" id="Path" stroke="#000000" stroke-width="8" fill="#FFFFFF" stroke-linecap="round" stroke-linejoin="round"></path>
            <ellipse id="Oval" fill="#000000" transform="translate(12.000000, 45.500000) rotate(-30.000000) translate(-12.000000, -45.500000) " cx="12" cy="45.5" rx="6" ry="7.5"></ellipse>
            <ellipse id="Oval" fill="#000000" transform="translate(37.000000, 54.500000) rotate(-105.000000) translate(-37.000000, -54.500000) " cx="37" cy="54.5" rx="6" ry="7.5"></ellipse>
            <ellipse id="Oval" fill="#000000" transform="translate(9.000000, 18.500000) rotate(-150.000000) translate(-9.000000, -18.500000) " cx="9" cy="18.5" rx="6" ry="7.5"></ellipse>
        </g>
    </g>
</svg>