<?xml version="1.0" encoding="UTF-8"?>
<svg width="1080px" height="1080px" viewBox="0 0 1080 1080" version="1.1" xmlns="http://www.w3.org/2000/svg" xmlns:xlink="http://www.w3.org/1999/xlink">
    <!-- Generator: Sketch 63.1 (92452) - https://sketch.com -->
    <title>Eyebrows/ 11</title>
    <desc>Created with Sketch.</desc>
    <g id="Eyebrows/-11" stroke="none" stroke-width="1" fill="none" fill-rule="evenodd" stroke-linecap="round" stroke-linejoin="round">
        <g id="Group" transform="translate(523.000000, 488.000000)" fill="#000000" stroke="#000000" stroke-width="8">
            <path d="M159,5.5 C189.577042,2.16666667 209.382627,2.16666667 218.416753,5.5 C227.450879,8.83333333 231.620476,14 230.925543,21 C226.061013,16.3333333 220.501551,12.6666667 214.247156,10 C207.992761,7.33333333 189.577042,5.83333333 159,5.5 Z" id="Path" transform="translate(195.000000, 12.000000) rotate(4.000000) translate(-195.000000, -12.000000) "></path>
            <path d="M1,5.5 C31.5770424,2.16666667 51.3826267,2.16666667 60.4167528,5.5 C69.450879,8.83333333 73.6204757,14 72.9255429,21 C68.0610134,16.3333333 62.5015512,12.6666667 56.2471562,10 C49.9927611,7.33333333 31.5770424,5.83333333 1,5.5 Z" id="Path" transform="translate(37.000000, 12.000000) scale(-1, 1) rotate(4.000000) translate(-37.000000, -12.000000) "></path>
        </g>
    </g>
</svg>