<?xml version="1.0" encoding="UTF-8"?>
<svg width="1080px" height="1080px" viewBox="0 0 1080 1080" version="1.1" xmlns="http://www.w3.org/2000/svg" xmlns:xlink="http://www.w3.org/1999/xlink">
    <!-- Generator: Sketch 63.1 (92452) - https://sketch.com -->
    <title>Eyebrows/ 12</title>
    <desc>Created with Sketch.</desc>
    <g id="Eyebrows/-12" stroke="none" stroke-width="1" fill="none" fill-rule="evenodd" stroke-linecap="round" stroke-linejoin="round">
        <g id="Group" transform="translate(523.000000, 489.000000)" fill="#000000" stroke="#000000" stroke-width="8">
            <path d="M158,16.3162164 C169.760419,8.0141853 178.224471,3.10156309 183.392157,1.57834978 C188.559843,0.0551364731 199.09579,-0.365574647 215,0.316216419 L232,5.91301644 C215.499748,5.90264304 202.682754,6.62508749 193.54902,8.08034977 C184.415285,9.53561205 172.565612,12.2809009 158,16.3162164 Z" id="Path"></path>
            <path d="M0,16.3162164 C11.7604187,8.0141853 20.224471,3.10156309 25.3921569,1.57834978 C30.5598427,0.0551364731 41.0957905,-0.365574647 57,0.316216419 L74,5.91301644 C57.4997476,5.90264304 44.6827541,6.62508749 35.5490196,8.08034977 C26.4152851,9.53561205 14.5656119,12.2809009 0,16.3162164 Z" id="Path" transform="translate(37.000000, 8.158108) scale(-1, 1) translate(-37.000000, -8.158108) "></path>
        </g>
    </g>
</svg>