<?xml version="1.0" encoding="UTF-8"?>
<svg width="1080px" height="1080px" viewBox="0 0 1080 1080" version="1.1" xmlns="http://www.w3.org/2000/svg" xmlns:xlink="http://www.w3.org/1999/xlink">
    <!-- Generator: Sketch 63.1 (92452) - https://sketch.com -->
    <title>Eyebrows/ 13</title>
    <desc>Created with Sketch.</desc>
    <g id="Eyebrows/-13" stroke="none" stroke-width="1" fill="none" fill-rule="evenodd" stroke-linecap="round" stroke-linejoin="round">
        <g id="Group" transform="translate(486.000000, 462.000000)" fill="#000000" stroke="#000000" stroke-width="4">
            <path d="M176.391304,20.335038 C179.391304,15.335038 236.391304,-2.66496203 256.391304,0.335037967 C269.724638,2.33503797 286.057971,12.0017046 305.391304,29.335038 C287.391304,22.0017046 270.057971,18.335038 253.391304,18.335038 C236.724638,18.335038 216.724638,24.335038 193.391304,36.335038 C180.057971,29.0017046 174.391304,23.6683713 176.391304,20.335038 Z" id="Path"></path>
            <path d="M0.391304348,20.335038 C3.39130435,15.335038 60.3913043,-2.66496203 80.3913043,0.335037967 C93.7246377,2.33503797 110.057971,12.0017046 129.391304,29.335038 C111.391304,22.0017046 94.057971,18.335038 77.3913043,18.335038 C60.7246377,18.335038 40.7246377,24.335038 17.3913043,36.335038 C4.05797101,29.0017046 -1.60869565,23.6683713 0.391304348,20.335038 Z" id="Path" transform="translate(64.695652, 18.167519) scale(-1, 1) translate(-64.695652, -18.167519) "></path>
        </g>
    </g>
</svg>