<?xml version="1.0" encoding="UTF-8"?>
<svg width="1080px" height="1080px" viewBox="0 0 1080 1080" version="1.1" xmlns="http://www.w3.org/2000/svg" xmlns:xlink="http://www.w3.org/1999/xlink">
    <!-- Generator: Sketch 63.1 (92452) - https://sketch.com -->
    <title>Eyebrows/ 14</title>
    <desc>Created with Sketch.</desc>
    <g id="Eyebrows/-14" stroke="none" stroke-width="1" fill="none" fill-rule="evenodd" stroke-linecap="round" stroke-linejoin="round">
        <g id="Group" transform="translate(485.032254, 466.519062)" fill="#000000" stroke="#000000" stroke-width="4">
            <path d="M177.326795,15.804257 C180.326795,10.804257 197.326795,4.804257 217.326795,7.804257 C230.660129,9.804257 260.326795,15.4709237 306.326795,24.804257 C285.660129,22.804257 266.993462,21.804257 250.326795,21.804257 C233.660129,21.804257 212.004418,24.0133139 185.359664,28.4314278 C178.004418,23.3466473 175.326795,19.1375903 177.326795,15.804257 Z" id="Path" transform="translate(241.506120, 17.715714) rotate(6.000000) translate(-241.506120, -17.715714) "></path>
            <path d="M1.6413514,15.804257 C4.6413514,10.804257 21.6413514,4.804257 41.6413514,7.804257 C54.9746847,9.804257 84.6413514,15.4709237 130.641351,24.804257 C109.974685,22.804257 91.3080181,21.804257 74.6413514,21.804257 C57.9746847,21.804257 36.3189743,24.0133139 9.67422003,28.4314278 C2.31897428,23.3466473 -0.358648596,19.1375903 1.6413514,15.804257 Z" id="Path" transform="translate(65.820676, 17.715714) scale(-1, 1) rotate(6.000000) translate(-65.820676, -17.715714) "></path>
        </g>
    </g>
</svg>