<?xml version="1.0" encoding="UTF-8"?>
<svg width="1080px" height="1080px" viewBox="0 0 1080 1080" version="1.1" xmlns="http://www.w3.org/2000/svg" xmlns:xlink="http://www.w3.org/1999/xlink">
    <!-- Generator: Sketch 63.1 (92452) - https://sketch.com -->
    <title>Eyebrows/ 15</title>
    <desc>Created with Sketch.</desc>
    <g id="Eyebrows/-15" stroke="none" stroke-width="1" fill="none" fill-rule="evenodd" stroke-linecap="round" stroke-linejoin="round">
        <g id="Group" transform="translate(502.000000, 475.000000)" fill="#000000" stroke="#000000" stroke-width="4">
            <path d="M121,28 C121,19.5835935 119.778626,14.8323962 117.335878,13.7464083 C113.671756,12.1174264 55.9618321,2.34353488 39.4732824,4.24401378 C28.480916,5.51099971 15.6564885,11.5291829 1,22.2985633 C16.3333333,15.4328544 31,12.3333333 45,13 C59,13.6666667 84.3333333,18.6666667 121,28 Z" id="Path" transform="translate(61.000000, 16.000000) rotate(3.000000) translate(-61.000000, -16.000000) "></path>
            <path d="M272,28 C272,19.5835935 270.778626,14.8323962 268.335878,13.7464083 C264.671756,12.1174264 206.961832,2.34353488 190.473282,4.24401378 C179.480916,5.51099971 166.656489,11.5291829 152,22.2985633 C167.333333,15.4328544 182,12.3333333 196,13 C210,13.6666667 235.333333,18.6666667 272,28 Z" id="Path" transform="translate(212.000000, 16.000000) scale(-1, 1) rotate(3.000000) translate(-212.000000, -16.000000) "></path>
        </g>
    </g>
</svg>